<svg xmlns="http://www.w3.org/2000/svg" viewBox="0 0 316.76 102.91"><defs><style>.cls-1{fill:#565555;}</style></defs><title>lauri</title><g id="Layer_2" data-name="Layer 2"><g id="Layer_1-2" data-name="Layer 1"><path class="cls-1" d="M120.94,70.21a14,14,0,0,0-2.15-4.42A65.66,65.66,0,0,0,111.53,58a30.81,30.81,0,0,0-25.35-7.79c-8.31,1.11-15.59,4.71-22.28,9.62a2.77,2.77,0,0,0-.31.36c5.71-3.05,11.44-5.85,18-7.46-5.1,7-3,13.89.73,17.53a12.76,12.76,0,0,0,16,1.5c5.47-3.65,6.89-9.71,4-17.06.1,0,.21-.06.29,0a26.62,26.62,0,0,1,11.19,10.83,4.24,4.24,0,0,1-1.18,5.44,32.6,32.6,0,0,1-27.34,6.54,51.08,51.08,0,0,1-19.21-8.61c-.32-.22-.66-.42-1-.62a.55.55,0,0,0,.16.54Q85.73,85.56,110,75.17A11.23,11.23,0,0,0,113.57,73c1-1,1.5-.94,2.32.11,1.35,1.71,2.77,1.86,4.28.6A3,3,0,0,0,120.94,70.21Zm-40.3-5c-.2-2.07-.38-4-.58-6.11l5.09.92c.11,1.24.2,2.22.3,3.36Zm15.21-3.78a2,2,0,0,1,0,.25c0,.15,0,.3-.06.44a5.82,5.82,0,0,1-.25.84l-.14.3a1.28,1.28,0,0,1-.11.2.75.75,0,0,1-.07.12l-.14.22a1.07,1.07,0,0,1-.15.22,5.6,5.6,0,0,1-.39.46,4.29,4.29,0,0,1-.45.4l-.22.17a4.3,4.3,0,0,1-.65.39l-.37.16a4.54,4.54,0,0,1-.69.21l-.26.05-.35,0a3,3,0,0,1-.6,0,.89.89,0,0,1-.23,0,4.76,4.76,0,0,1-4.16-5.18,4.61,4.61,0,0,1,5.14-4.15,4.52,4.52,0,0,1,.53.09,3.44,3.44,0,0,1,.46.12l.43.16a3.56,3.56,0,0,1,.55.28l.2.13a5.58,5.58,0,0,1,.54.42l.3.3a4.91,4.91,0,0,1,.39.51q.16.25.3.51c.07.14.13.29.19.44s.09.26.12.39a2.88,2.88,0,0,1,.07.28c0,.11,0,.21,0,.31a5.06,5.06,0,0,1,0,.68A2.17,2.17,0,0,1,95.85,61.48Zm29.37.84a62.3,62.3,0,0,0-13.56-10.67c-8.95-5.09-18.45-6.91-28.56-4.47a48.18,48.18,0,0,0-21.46,12,8.64,8.64,0,0,0-.7.78,139.07,139.07,0,0,1,12.81-7.68A35.62,35.62,0,0,1,97.3,48.91C107.22,51,115,56.48,121.16,64.37A14.14,14.14,0,0,0,122.67,66c1.59,1.45,2.36,1.39,3.69-.22,0-.5.09-1,.13-1.5A10.78,10.78,0,0,0,125.22,62.32Zm0,0a62.3,62.3,0,0,0-13.56-10.67c-8.95-5.09-18.45-6.91-28.56-4.47a48.18,48.18,0,0,0-21.46,12,8.64,8.64,0,0,0-.7.78,139.07,139.07,0,0,1,12.81-7.68A35.62,35.62,0,0,1,97.3,48.91C107.22,51,115,56.48,121.16,64.37A14.14,14.14,0,0,0,122.67,66c1.59,1.45,2.36,1.39,3.69-.22,0-.5.09-1,.13-1.5A10.78,10.78,0,0,0,125.22,62.32Zm-4.28,7.89a14,14,0,0,0-2.15-4.42A65.66,65.66,0,0,0,111.53,58a30.81,30.81,0,0,0-25.35-7.79c-8.31,1.11-15.59,4.71-22.28,9.62a2.77,2.77,0,0,0-.31.36c5.71-3.05,11.44-5.85,18-7.46-5.1,7-3,13.89.73,17.53a12.76,12.76,0,0,0,16,1.5c5.47-3.65,6.89-9.71,4-17.06.1,0,.21-.06.29,0a26.62,26.62,0,0,1,11.19,10.83,4.24,4.24,0,0,1-1.18,5.44,32.6,32.6,0,0,1-27.34,6.54,51.08,51.08,0,0,1-19.21-8.61c-.32-.22-.66-.42-1-.62a.55.55,0,0,0,.16.54Q85.73,85.56,110,75.17A11.23,11.23,0,0,0,113.57,73c1-1,1.5-.94,2.32.11,1.35,1.71,2.77,1.86,4.28.6A3,3,0,0,0,120.94,70.21Zm-40.3-5c-.2-2.07-.38-4-.58-6.11l5.09.92c.11,1.24.2,2.22.3,3.36Zm15.21-3.78a2,2,0,0,1,0,.25c0,.15,0,.3-.06.44a5.82,5.82,0,0,1-.25.84l-.14.3a1.28,1.28,0,0,1-.11.2.75.75,0,0,1-.07.12l-.14.22a1.07,1.07,0,0,1-.15.22,5.6,5.6,0,0,1-.39.46,4.29,4.29,0,0,1-.45.4l-.22.17a4.3,4.3,0,0,1-.65.39l-.37.16a4.54,4.54,0,0,1-.69.21l-.26.05-.35,0a3,3,0,0,1-.6,0,.89.89,0,0,1-.23,0,4.76,4.76,0,0,1-4.16-5.18,4.61,4.61,0,0,1,5.14-4.15,4.52,4.52,0,0,1,.53.09,3.44,3.44,0,0,1,.46.12l.43.16a3.56,3.56,0,0,1,.55.28l.2.13a5.58,5.58,0,0,1,.54.42l.3.3a4.91,4.91,0,0,1,.39.51q.16.25.3.51c.07.14.13.29.19.44s.09.26.12.39a2.88,2.88,0,0,1,.07.28c0,.11,0,.21,0,.31a5.06,5.06,0,0,1,0,.68A2.17,2.17,0,0,1,95.85,61.48Zm25.09,8.73a14,14,0,0,0-2.15-4.42A65.66,65.66,0,0,0,111.53,58a30.81,30.81,0,0,0-25.35-7.79c-8.31,1.11-15.59,4.71-22.28,9.62a2.77,2.77,0,0,0-.31.36c5.71-3.05,11.44-5.85,18-7.46-5.1,7-3,13.89.73,17.53a12.76,12.76,0,0,0,16,1.5c5.47-3.65,6.89-9.71,4-17.06.1,0,.21-.06.29,0a26.62,26.62,0,0,1,11.19,10.83,4.24,4.24,0,0,1-1.18,5.44,32.6,32.6,0,0,1-27.34,6.54,51.08,51.08,0,0,1-19.21-8.61c-.32-.22-.66-.42-1-.62a.55.55,0,0,0,.16.54Q85.73,85.56,110,75.17A11.23,11.23,0,0,0,113.57,73c1-1,1.5-.94,2.32.11,1.35,1.71,2.77,1.86,4.28.6A3,3,0,0,0,120.94,70.21Zm-40.3-5c-.2-2.07-.38-4-.58-6.11l5.09.92c.11,1.24.2,2.22.3,3.36Zm15.21-3.78a2,2,0,0,1,0,.25c0,.15,0,.3-.06.44a5.82,5.82,0,0,1-.25.84l-.14.3a1.28,1.28,0,0,1-.11.2.75.75,0,0,1-.07.12l-.14.22a1.07,1.07,0,0,1-.15.22,5.6,5.6,0,0,1-.39.46,4.29,4.29,0,0,1-.45.4l-.22.17a4.3,4.3,0,0,1-.65.39l-.37.16a4.54,4.54,0,0,1-.69.21l-.26.05-.35,0a3,3,0,0,1-.6,0,.89.89,0,0,1-.23,0,4.76,4.76,0,0,1-4.16-5.18,4.61,4.61,0,0,1,5.14-4.15,4.52,4.52,0,0,1,.53.09,3.44,3.44,0,0,1,.46.12l.43.16a3.56,3.56,0,0,1,.55.28l.2.13a5.58,5.58,0,0,1,.54.42l.3.3a4.91,4.91,0,0,1,.39.51q.16.25.3.51c.07.14.13.29.19.44s.09.26.12.39a2.88,2.88,0,0,1,.07.28c0,.11,0,.21,0,.31a5.06,5.06,0,0,1,0,.68A2.17,2.17,0,0,1,95.85,61.48Zm29.37.84a62.3,62.3,0,0,0-13.56-10.67c-8.95-5.09-18.45-6.91-28.56-4.47a48.18,48.18,0,0,0-21.46,12,8.64,8.64,0,0,0-.7.78,139.07,139.07,0,0,1,12.81-7.68A35.62,35.62,0,0,1,97.3,48.91C107.22,51,115,56.48,121.16,64.37A14.14,14.14,0,0,0,122.67,66c1.59,1.45,2.36,1.39,3.69-.22,0-.5.09-1,.13-1.5A10.78,10.78,0,0,0,125.22,62.32Zm127.65,6.11A51.08,51.08,0,0,1,233.66,77a32.6,32.6,0,0,1-27.34-6.54,4.25,4.25,0,0,1-1.18-5.44,26.65,26.65,0,0,1,11.2-10.83c.07,0,.18,0,.28,0-2.9,7.35-1.48,13.42,4,17.06a12.78,12.78,0,0,0,16.06-1.5c3.69-3.64,5.82-10.53.72-17.52,6.58,1.6,12.31,4.4,18,7.45a2.17,2.17,0,0,0-.31-.36c-6.69-4.9-14-8.51-22.28-9.62a30.81,30.81,0,0,0-25.35,7.79,67.25,67.25,0,0,0-7.26,7.82,14,14,0,0,0-2.15,4.42,3,3,0,0,0,.77,3.45c1.51,1.26,2.93,1.11,4.28-.6.82-1,1.31-1.14,2.32-.11A11.23,11.23,0,0,0,209,74.75q24.3,10.37,44.74-6.4a.55.55,0,0,0,.16-.54C253.53,68,253.19,68.21,252.87,68.43ZM227.32,56.19a4.61,4.61,0,0,1,5.14,4.15,4.67,4.67,0,1,1-9.29,1A4.59,4.59,0,0,1,227.32,56.19Zm-5.39,3.65c.11,1.23.2,2.21.3,3.35L217.42,65c-.2-2.07-.38-4-.58-6.11Zm35.44-1.11a48.25,48.25,0,0,0-21.47-12c-10.1-2.45-19.61-.63-28.56,4.47a61.93,61.93,0,0,0-13.56,10.67,11.23,11.23,0,0,0-1.27,2c0,.5.09,1,.13,1.5,1.33,1.61,2.1,1.67,3.69.23A15.08,15.08,0,0,0,197.84,64c6.19-7.88,13.94-13.39,23.86-15.46a35.62,35.62,0,0,1,23.55,3.34,137.73,137.73,0,0,1,12.81,7.68C257.83,59.25,257.62,59,257.37,58.73Zm0,0a48.25,48.25,0,0,0-21.47-12c-10.1-2.45-19.61-.63-28.56,4.47a61.93,61.93,0,0,0-13.56,10.67,11.23,11.23,0,0,0-1.27,2c0,.5.09,1,.13,1.5,1.33,1.61,2.1,1.67,3.69.23A15.08,15.08,0,0,0,197.84,64c6.19-7.88,13.94-13.39,23.86-15.46a35.62,35.62,0,0,1,23.55,3.34,137.73,137.73,0,0,1,12.81,7.68C257.83,59.25,257.62,59,257.37,58.73Zm-4.5,9.7A51.08,51.08,0,0,1,233.66,77a32.6,32.6,0,0,1-27.34-6.54,4.25,4.25,0,0,1-1.18-5.44,26.65,26.65,0,0,1,11.2-10.83c.07,0,.18,0,.28,0-2.9,7.35-1.48,13.42,4,17.06a12.78,12.78,0,0,0,16.06-1.5c3.69-3.64,5.82-10.53.72-17.52,6.58,1.6,12.31,4.4,18,7.45a2.17,2.17,0,0,0-.31-.36c-6.69-4.9-14-8.51-22.28-9.62a30.81,30.81,0,0,0-25.35,7.79,67.25,67.25,0,0,0-7.26,7.82,14,14,0,0,0-2.15,4.42,3,3,0,0,0,.77,3.45c1.51,1.26,2.93,1.11,4.28-.6.82-1,1.31-1.14,2.32-.11A11.23,11.23,0,0,0,209,74.75q24.3,10.37,44.74-6.4a.55.55,0,0,0,.16-.54C253.53,68,253.19,68.21,252.87,68.43ZM227.32,56.19a4.61,4.61,0,0,1,5.14,4.15,4.67,4.67,0,1,1-9.29,1A4.59,4.59,0,0,1,227.32,56.19Zm-5.39,3.65c.11,1.23.2,2.21.3,3.35L217.42,65c-.2-2.07-.38-4-.58-6.11Zm-96.71,2.48a62.3,62.3,0,0,0-13.56-10.67c-8.95-5.09-18.45-6.91-28.56-4.47a48.18,48.18,0,0,0-21.46,12,8.64,8.64,0,0,0-.7.78,139.07,139.07,0,0,1,12.81-7.68A35.62,35.62,0,0,1,97.3,48.91C107.22,51,115,56.48,121.16,64.37A14.14,14.14,0,0,0,122.67,66c1.59,1.45,2.36,1.39,3.69-.22,0-.5.09-1,.13-1.5A10.78,10.78,0,0,0,125.22,62.32Zm-4.28,7.89a14,14,0,0,0-2.15-4.42A65.66,65.66,0,0,0,111.53,58a30.81,30.81,0,0,0-25.35-7.79c-8.31,1.11-15.59,4.71-22.28,9.62a2.77,2.77,0,0,0-.31.36c5.71-3.05,11.44-5.85,18-7.46-5.1,7-3,13.89.73,17.53a12.76,12.76,0,0,0,16,1.5c5.47-3.65,6.89-9.71,4-17.06.1,0,.21-.06.29,0a26.62,26.62,0,0,1,11.19,10.83,4.24,4.24,0,0,1-1.18,5.44,32.6,32.6,0,0,1-27.34,6.54,51.08,51.08,0,0,1-19.21-8.61c-.32-.22-.66-.42-1-.62a.55.55,0,0,0,.16.54Q85.73,85.56,110,75.17A11.23,11.23,0,0,0,113.57,73c1-1,1.5-.94,2.32.11,1.35,1.71,2.77,1.86,4.28.6A3,3,0,0,0,120.94,70.21Zm-40.3-5c-.2-2.07-.38-4-.58-6.11l5.09.92c.11,1.24.2,2.22.3,3.36Zm15.21-3.78a2,2,0,0,1,0,.25c0,.15,0,.3-.06.44a5.82,5.82,0,0,1-.25.84l-.14.3a1.28,1.28,0,0,1-.11.2.75.75,0,0,1-.07.12l-.14.22a1.07,1.07,0,0,1-.15.22,5.6,5.6,0,0,1-.39.46,4.29,4.29,0,0,1-.45.4l-.22.17a4.3,4.3,0,0,1-.65.39l-.37.16a4.54,4.54,0,0,1-.69.21l-.26.05-.35,0a3,3,0,0,1-.6,0,.89.89,0,0,1-.23,0,4.76,4.76,0,0,1-4.16-5.18,4.61,4.61,0,0,1,5.14-4.15,4.52,4.52,0,0,1,.53.09,3.44,3.44,0,0,1,.46.12l.43.16a3.56,3.56,0,0,1,.55.28l.2.13a5.58,5.58,0,0,1,.54.42l.3.3a4.91,4.91,0,0,1,.39.51q.16.25.3.51c.07.14.13.29.19.44s.09.26.12.39a2.88,2.88,0,0,1,.07.28c0,.11,0,.21,0,.31a5.06,5.06,0,0,1,0,.68A2.17,2.17,0,0,1,95.85,61.48Zm25.09,8.73a14,14,0,0,0-2.15-4.42A65.66,65.66,0,0,0,111.53,58a30.81,30.81,0,0,0-25.35-7.79c-8.31,1.11-15.59,4.71-22.28,9.62a2.77,2.77,0,0,0-.31.36c5.71-3.05,11.44-5.85,18-7.46-5.1,7-3,13.89.73,17.53a12.76,12.76,0,0,0,16,1.5c5.47-3.65,6.89-9.71,4-17.06.1,0,.21-.06.29,0a26.62,26.62,0,0,1,11.19,10.83,4.24,4.24,0,0,1-1.18,5.44,32.6,32.6,0,0,1-27.34,6.54,51.08,51.08,0,0,1-19.21-8.61c-.32-.22-.66-.42-1-.62a.55.55,0,0,0,.16.54Q85.73,85.56,110,75.17A11.23,11.23,0,0,0,113.57,73c1-1,1.5-.94,2.32.11,1.35,1.71,2.77,1.86,4.28.6A3,3,0,0,0,120.94,70.21Zm-40.3-5c-.2-2.07-.38-4-.58-6.11l5.09.92c.11,1.24.2,2.22.3,3.36Zm15.21-3.78a2,2,0,0,1,0,.25c0,.15,0,.3-.06.44a5.82,5.82,0,0,1-.25.84l-.14.3a1.28,1.28,0,0,1-.11.2.75.75,0,0,1-.07.12l-.14.22a1.07,1.07,0,0,1-.15.22,5.6,5.6,0,0,1-.39.46,4.29,4.29,0,0,1-.45.4l-.22.17a4.3,4.3,0,0,1-.65.39l-.37.16a4.54,4.54,0,0,1-.69.21l-.26.05-.35,0a3,3,0,0,1-.6,0,.89.89,0,0,1-.23,0,4.76,4.76,0,0,1-4.16-5.18,4.61,4.61,0,0,1,5.14-4.15,4.52,4.52,0,0,1,.53.09,3.44,3.44,0,0,1,.46.12l.43.16a3.56,3.56,0,0,1,.55.28l.2.13a5.58,5.58,0,0,1,.54.42l.3.3a4.91,4.91,0,0,1,.39.51q.16.25.3.51c.07.14.13.29.19.44s.09.26.12.39a2.88,2.88,0,0,1,.07.28c0,.11,0,.21,0,.31a5.06,5.06,0,0,1,0,.68A2.17,2.17,0,0,1,95.85,61.48Zm29.37.84a62.3,62.3,0,0,0-13.56-10.67c-8.95-5.09-18.45-6.91-28.56-4.47a48.18,48.18,0,0,0-21.46,12,8.64,8.64,0,0,0-.7.78,139.07,139.07,0,0,1,12.81-7.68A35.62,35.62,0,0,1,97.3,48.91C107.22,51,115,56.48,121.16,64.37A14.14,14.14,0,0,0,122.67,66c1.59,1.45,2.36,1.39,3.69-.22,0-.5.09-1,.13-1.5A10.78,10.78,0,0,0,125.22,62.32Zm127.65,6.11A51.08,51.08,0,0,1,233.66,77a32.6,32.6,0,0,1-27.34-6.54,4.25,4.25,0,0,1-1.18-5.44,26.65,26.65,0,0,1,11.2-10.83c.07,0,.18,0,.28,0-2.9,7.35-1.48,13.42,4,17.06a12.78,12.78,0,0,0,16.06-1.5c3.69-3.64,5.82-10.53.72-17.52,6.58,1.6,12.31,4.4,18,7.45a2.17,2.17,0,0,0-.31-.36c-6.69-4.9-14-8.51-22.28-9.62a30.81,30.81,0,0,0-25.35,7.79,67.25,67.25,0,0,0-7.26,7.82,14,14,0,0,0-2.15,4.42,3,3,0,0,0,.77,3.45c1.51,1.26,2.93,1.11,4.28-.6.82-1,1.31-1.14,2.32-.11A11.23,11.23,0,0,0,209,74.75q24.3,10.37,44.74-6.4a.55.55,0,0,0,.16-.54C253.53,68,253.19,68.21,252.87,68.43ZM227.32,56.19a4.61,4.61,0,0,1,5.14,4.15,4.67,4.67,0,1,1-9.29,1A4.59,4.59,0,0,1,227.32,56.19Zm-5.39,3.65c.11,1.23.2,2.21.3,3.35L217.42,65c-.2-2.07-.38-4-.58-6.11Zm35.44-1.11a48.25,48.25,0,0,0-21.47-12c-10.1-2.45-19.61-.63-28.56,4.47a61.93,61.93,0,0,0-13.56,10.67,11.23,11.23,0,0,0-1.27,2c0,.5.09,1,.13,1.5,1.33,1.61,2.1,1.67,3.69.23A15.08,15.08,0,0,0,197.84,64c6.19-7.88,13.94-13.39,23.86-15.46a35.62,35.62,0,0,1,23.55,3.34,137.73,137.73,0,0,1,12.81,7.68C257.83,59.25,257.62,59,257.37,58.73Zm0,0a48.25,48.25,0,0,0-21.47-12c-10.1-2.45-19.61-.63-28.56,4.47a61.93,61.93,0,0,0-13.56,10.67,11.23,11.23,0,0,0-1.27,2c0,.5.09,1,.13,1.5,1.33,1.61,2.1,1.67,3.69.23A15.08,15.08,0,0,0,197.84,64c6.19-7.88,13.94-13.39,23.86-15.46a35.62,35.62,0,0,1,23.55,3.34,137.73,137.73,0,0,1,12.81,7.68C257.83,59.25,257.62,59,257.37,58.73Zm-4.5,9.7A51.08,51.08,0,0,1,233.66,77a32.6,32.6,0,0,1-27.34-6.54,4.25,4.25,0,0,1-1.18-5.44,26.65,26.65,0,0,1,11.2-10.83c.07,0,.18,0,.28,0-2.9,7.35-1.48,13.42,4,17.06a12.78,12.78,0,0,0,16.06-1.5c3.69-3.64,5.82-10.53.72-17.52,6.58,1.6,12.31,4.4,18,7.45a2.17,2.17,0,0,0-.31-.36c-6.69-4.9-14-8.51-22.28-9.62a30.81,30.81,0,0,0-25.35,7.79,67.25,67.25,0,0,0-7.26,7.82,14,14,0,0,0-2.15,4.42,3,3,0,0,0,.77,3.45c1.51,1.26,2.93,1.11,4.28-.6.82-1,1.31-1.14,2.32-.11A11.23,11.23,0,0,0,209,74.75q24.3,10.37,44.74-6.4a.55.55,0,0,0,.16-.54C253.53,68,253.19,68.21,252.87,68.43ZM227.32,56.19a4.61,4.61,0,0,1,5.14,4.15,4.67,4.67,0,1,1-9.29,1A4.59,4.59,0,0,1,227.32,56.19Zm-5.39,3.65c.11,1.23.2,2.21.3,3.35L217.42,65c-.2-2.07-.38-4-.58-6.11Zm-96.71,2.48a62.3,62.3,0,0,0-13.56-10.67c-8.95-5.09-18.45-6.91-28.56-4.47a48.18,48.18,0,0,0-21.46,12,8.64,8.64,0,0,0-.7.78,139.07,139.07,0,0,1,12.81-7.68A35.62,35.62,0,0,1,97.3,48.91C107.22,51,115,56.48,121.16,64.37A14.14,14.14,0,0,0,122.67,66c1.59,1.45,2.36,1.39,3.69-.22,0-.5.09-1,.13-1.5A10.78,10.78,0,0,0,125.22,62.32Zm-4.28,7.89a14,14,0,0,0-2.15-4.42A65.66,65.66,0,0,0,111.53,58a30.81,30.81,0,0,0-25.35-7.79c-8.31,1.11-15.59,4.71-22.28,9.62a2.77,2.77,0,0,0-.31.36c5.71-3.05,11.44-5.85,18-7.46-5.1,7-3,13.89.73,17.53a12.76,12.76,0,0,0,16,1.5c5.47-3.65,6.89-9.71,4-17.06.1,0,.21-.06.29,0a26.62,26.62,0,0,1,11.19,10.83,4.24,4.24,0,0,1-1.18,5.44,32.6,32.6,0,0,1-27.34,6.54,51.08,51.08,0,0,1-19.21-8.61c-.32-.22-.66-.42-1-.62a.55.55,0,0,0,.16.54Q85.73,85.56,110,75.17A11.23,11.23,0,0,0,113.57,73c1-1,1.5-.94,2.32.11,1.35,1.71,2.77,1.86,4.28.6A3,3,0,0,0,120.94,70.21Zm-40.3-5c-.2-2.07-.38-4-.58-6.11l5.09.92c.11,1.24.2,2.22.3,3.36Zm15.21-3.78a2,2,0,0,1,0,.25c0,.15,0,.3-.06.44a5.82,5.82,0,0,1-.25.84l-.14.3a1.28,1.28,0,0,1-.11.2.75.75,0,0,1-.07.12l-.14.22a1.07,1.07,0,0,1-.15.22,5.6,5.6,0,0,1-.39.46,4.29,4.29,0,0,1-.45.4l-.22.17a4.3,4.3,0,0,1-.65.39l-.37.16a4.54,4.54,0,0,1-.69.21l-.26.05-.35,0a3,3,0,0,1-.6,0,.89.89,0,0,1-.23,0,4.76,4.76,0,0,1-4.16-5.18,4.61,4.61,0,0,1,5.14-4.15,4.52,4.52,0,0,1,.53.09,3.44,3.44,0,0,1,.46.12l.43.16a3.56,3.56,0,0,1,.55.28l.2.13a5.58,5.58,0,0,1,.54.42l.3.3a4.91,4.91,0,0,1,.39.51q.16.25.3.51c.07.14.13.29.19.44s.09.26.12.39a2.88,2.88,0,0,1,.07.28c0,.11,0,.21,0,.31a5.06,5.06,0,0,1,0,.68A2.17,2.17,0,0,1,95.85,61.48Zm25.09,8.73a14,14,0,0,0-2.15-4.42A65.66,65.66,0,0,0,111.53,58a30.81,30.81,0,0,0-25.35-7.79c-8.31,1.11-15.59,4.71-22.28,9.62a2.77,2.77,0,0,0-.31.36c5.71-3.05,11.44-5.85,18-7.46-5.1,7-3,13.89.73,17.53a12.76,12.76,0,0,0,16,1.5c5.47-3.65,6.89-9.71,4-17.06.1,0,.21-.06.29,0a26.62,26.62,0,0,1,11.19,10.83,4.24,4.24,0,0,1-1.18,5.44,32.6,32.6,0,0,1-27.34,6.54,51.08,51.08,0,0,1-19.21-8.61c-.32-.22-.66-.42-1-.62a.55.55,0,0,0,.16.54Q85.73,85.56,110,75.17A11.23,11.23,0,0,0,113.57,73c1-1,1.5-.94,2.32.11,1.35,1.71,2.77,1.86,4.28.6A3,3,0,0,0,120.94,70.21Zm-40.3-5c-.2-2.07-.38-4-.58-6.11l5.09.92c.11,1.24.2,2.22.3,3.36Zm15.21-3.78a2,2,0,0,1,0,.25c0,.15,0,.3-.06.44a5.82,5.82,0,0,1-.25.84l-.14.3a1.28,1.28,0,0,1-.11.2.75.75,0,0,1-.07.12l-.14.22a1.07,1.07,0,0,1-.15.22,5.6,5.6,0,0,1-.39.46,4.29,4.29,0,0,1-.45.4l-.22.17a4.3,4.3,0,0,1-.65.39l-.37.16a4.54,4.54,0,0,1-.69.21l-.26.05-.35,0a3,3,0,0,1-.6,0,.89.89,0,0,1-.23,0,4.76,4.76,0,0,1-4.16-5.18,4.61,4.61,0,0,1,5.14-4.15,4.52,4.52,0,0,1,.53.09,3.44,3.44,0,0,1,.46.12l.43.16a3.56,3.56,0,0,1,.55.28l.2.13a5.58,5.58,0,0,1,.54.42l.3.3a4.91,4.91,0,0,1,.39.51q.16.25.3.51c.07.14.13.29.19.44s.09.26.12.39a2.88,2.88,0,0,1,.07.28c0,.11,0,.21,0,.31a5.06,5.06,0,0,1,0,.68A2.17,2.17,0,0,1,95.85,61.48Zm29.37.84a62.3,62.3,0,0,0-13.56-10.67c-8.95-5.09-18.45-6.91-28.56-4.47a48.18,48.18,0,0,0-21.46,12,8.64,8.64,0,0,0-.7.78,139.07,139.07,0,0,1,12.81-7.68A35.62,35.62,0,0,1,97.3,48.91C107.22,51,115,56.48,121.16,64.37A14.14,14.14,0,0,0,122.67,66c1.59,1.45,2.36,1.39,3.69-.22,0-.5.09-1,.13-1.5A10.78,10.78,0,0,0,125.22,62.32Zm127.65,6.11A51.08,51.08,0,0,1,233.66,77a32.6,32.6,0,0,1-27.34-6.54,4.25,4.25,0,0,1-1.18-5.44,26.65,26.65,0,0,1,11.2-10.83c.07,0,.18,0,.28,0-2.9,7.35-1.48,13.42,4,17.06a12.78,12.78,0,0,0,16.06-1.5c3.69-3.64,5.82-10.53.72-17.52,6.58,1.6,12.31,4.4,18,7.45a2.17,2.17,0,0,0-.31-.36c-6.69-4.9-14-8.51-22.28-9.62a30.81,30.81,0,0,0-25.35,7.79,67.25,67.25,0,0,0-7.26,7.82,14,14,0,0,0-2.15,4.42,3,3,0,0,0,.77,3.45c1.51,1.26,2.93,1.11,4.28-.6.82-1,1.31-1.14,2.32-.11A11.23,11.23,0,0,0,209,74.75q24.3,10.37,44.74-6.4a.55.55,0,0,0,.16-.54C253.53,68,253.19,68.21,252.87,68.43ZM227.32,56.19a4.61,4.61,0,0,1,5.14,4.15,4.67,4.67,0,1,1-9.29,1A4.59,4.59,0,0,1,227.32,56.19Zm-5.39,3.65c.11,1.23.2,2.21.3,3.35L217.42,65c-.2-2.07-.38-4-.58-6.11Zm35.44-1.11a48.25,48.25,0,0,0-21.47-12c-10.1-2.45-19.61-.63-28.56,4.47a61.93,61.93,0,0,0-13.56,10.67,11.23,11.23,0,0,0-1.27,2c0,.5.09,1,.13,1.5,1.33,1.61,2.1,1.67,3.69.23A15.08,15.08,0,0,0,197.84,64c6.19-7.88,13.94-13.39,23.86-15.46a35.62,35.62,0,0,1,23.55,3.34,137.73,137.73,0,0,1,12.81,7.68C257.83,59.25,257.62,59,257.37,58.73Zm0,0a48.25,48.25,0,0,0-21.47-12c-10.1-2.45-19.61-.63-28.56,4.47a61.93,61.93,0,0,0-13.56,10.67,11.23,11.23,0,0,0-1.27,2c0,.5.09,1,.13,1.5,1.33,1.61,2.1,1.67,3.69.23A15.08,15.08,0,0,0,197.84,64c6.19-7.88,13.94-13.39,23.86-15.46a35.62,35.62,0,0,1,23.55,3.34,137.73,137.73,0,0,1,12.81,7.68C257.83,59.25,257.62,59,257.37,58.73Zm-4.5,9.7A51.08,51.08,0,0,1,233.66,77a32.6,32.6,0,0,1-27.34-6.54,4.25,4.25,0,0,1-1.18-5.44,26.65,26.65,0,0,1,11.2-10.83c.07,0,.18,0,.28,0-2.9,7.35-1.48,13.42,4,17.06a12.78,12.78,0,0,0,16.06-1.5c3.69-3.64,5.82-10.53.72-17.52,6.58,1.6,12.31,4.4,18,7.45a2.17,2.17,0,0,0-.31-.36c-6.69-4.9-14-8.51-22.28-9.62a30.81,30.81,0,0,0-25.35,7.79,67.25,67.25,0,0,0-7.26,7.82,14,14,0,0,0-2.15,4.42,3,3,0,0,0,.77,3.45c1.51,1.26,2.93,1.11,4.28-.6.82-1,1.31-1.14,2.32-.11A11.23,11.23,0,0,0,209,74.75q24.3,10.37,44.74-6.4a.55.55,0,0,0,.16-.54C253.53,68,253.19,68.21,252.87,68.43ZM227.32,56.19a4.61,4.61,0,0,1,5.14,4.15,4.67,4.67,0,1,1-9.29,1A4.59,4.59,0,0,1,227.32,56.19Zm-5.39,3.65c.11,1.23.2,2.21.3,3.35L217.42,65c-.2-2.07-.38-4-.58-6.11Zm-96.71,2.48a62.3,62.3,0,0,0-13.56-10.67c-8.95-5.09-18.45-6.91-28.56-4.47a48.18,48.18,0,0,0-21.46,12,8.64,8.64,0,0,0-.7.78,139.07,139.07,0,0,1,12.81-7.68A35.62,35.62,0,0,1,97.3,48.91C107.22,51,115,56.48,121.16,64.37A14.14,14.14,0,0,0,122.67,66c1.59,1.45,2.36,1.39,3.69-.22,0-.5.09-1,.13-1.5A10.78,10.78,0,0,0,125.22,62.32Zm-4.28,7.89a14,14,0,0,0-2.15-4.42A65.66,65.66,0,0,0,111.53,58a30.81,30.81,0,0,0-25.35-7.79c-8.31,1.11-15.59,4.71-22.28,9.62a2.77,2.77,0,0,0-.31.36c5.71-3.05,11.44-5.85,18-7.46-5.1,7-3,13.89.73,17.53a12.76,12.76,0,0,0,16,1.5c5.47-3.65,6.89-9.71,4-17.06.1,0,.21-.06.29,0a26.62,26.62,0,0,1,11.19,10.83,4.24,4.24,0,0,1-1.18,5.44,32.6,32.6,0,0,1-27.34,6.54,51.08,51.08,0,0,1-19.21-8.61c-.32-.22-.66-.42-1-.62a.55.55,0,0,0,.16.54Q85.73,85.56,110,75.17A11.23,11.23,0,0,0,113.57,73c1-1,1.5-.94,2.32.11,1.35,1.71,2.77,1.86,4.28.6A3,3,0,0,0,120.94,70.21Zm-40.3-5c-.2-2.07-.38-4-.58-6.11l5.09.92c.11,1.24.2,2.22.3,3.36Zm15.21-3.78a2,2,0,0,1,0,.25c0,.15,0,.3-.06.44a5.82,5.82,0,0,1-.25.84l-.14.3a1.28,1.28,0,0,1-.11.2.75.75,0,0,1-.07.12l-.14.22a1.07,1.07,0,0,1-.15.22,5.6,5.6,0,0,1-.39.46,4.29,4.29,0,0,1-.45.4l-.22.17a4.3,4.3,0,0,1-.65.39l-.37.16a4.54,4.54,0,0,1-.69.21l-.26.05-.35,0a3,3,0,0,1-.6,0,.89.89,0,0,1-.23,0,4.76,4.76,0,0,1-4.16-5.18,4.61,4.61,0,0,1,5.14-4.15,4.52,4.52,0,0,1,.53.09,3.44,3.44,0,0,1,.46.12l.43.16a3.56,3.56,0,0,1,.55.28l.2.13a5.58,5.58,0,0,1,.54.42l.3.3a4.91,4.91,0,0,1,.39.51q.16.25.3.51c.07.14.13.29.19.44s.09.26.12.39a2.88,2.88,0,0,1,.07.28c0,.11,0,.21,0,.31a5.06,5.06,0,0,1,0,.68A2.17,2.17,0,0,1,95.85,61.48Zm25.09,8.73a14,14,0,0,0-2.15-4.42A65.66,65.66,0,0,0,111.53,58a30.81,30.81,0,0,0-25.35-7.79c-8.31,1.11-15.59,4.71-22.28,9.62a2.77,2.77,0,0,0-.31.36c5.71-3.05,11.44-5.85,18-7.46-5.1,7-3,13.89.73,17.53a12.76,12.76,0,0,0,16,1.5c5.47-3.65,6.89-9.71,4-17.06.1,0,.21-.06.29,0a26.62,26.62,0,0,1,11.19,10.83,4.24,4.24,0,0,1-1.18,5.44,32.6,32.6,0,0,1-27.34,6.54,51.08,51.08,0,0,1-19.21-8.61c-.32-.22-.66-.42-1-.62a.55.55,0,0,0,.16.54Q85.73,85.56,110,75.17A11.23,11.23,0,0,0,113.57,73c1-1,1.5-.94,2.32.11,1.35,1.71,2.77,1.86,4.28.6A3,3,0,0,0,120.94,70.21Zm-40.3-5c-.2-2.07-.38-4-.58-6.11l5.09.92c.11,1.24.2,2.22.3,3.36Zm15.21-3.78a2,2,0,0,1,0,.25c0,.15,0,.3-.06.44a5.82,5.82,0,0,1-.25.84l-.14.3a1.28,1.28,0,0,1-.11.2.75.75,0,0,1-.07.12l-.14.22a1.07,1.07,0,0,1-.15.22,5.6,5.6,0,0,1-.39.46,4.29,4.29,0,0,1-.45.4l-.22.17a4.3,4.3,0,0,1-.65.39l-.37.16a4.54,4.54,0,0,1-.69.21l-.26.05-.35,0a3,3,0,0,1-.6,0,.89.89,0,0,1-.23,0,4.76,4.76,0,0,1-4.16-5.18,4.61,4.61,0,0,1,5.14-4.15,4.52,4.52,0,0,1,.53.09,3.44,3.44,0,0,1,.46.12l.43.16a3.56,3.56,0,0,1,.55.28l.2.13a5.58,5.58,0,0,1,.54.42l.3.3a4.91,4.91,0,0,1,.39.51q.16.25.3.51c.07.14.13.29.19.44s.09.26.12.39a2.88,2.88,0,0,1,.07.28c0,.11,0,.21,0,.31a5.06,5.06,0,0,1,0,.68A2.17,2.17,0,0,1,95.85,61.48Zm29.37.84a62.3,62.3,0,0,0-13.56-10.67c-8.95-5.09-18.45-6.91-28.56-4.47a48.18,48.18,0,0,0-21.46,12,8.64,8.64,0,0,0-.7.78,139.07,139.07,0,0,1,12.81-7.68A35.62,35.62,0,0,1,97.3,48.91C107.22,51,115,56.48,121.16,64.37A14.14,14.14,0,0,0,122.67,66c1.59,1.45,2.36,1.39,3.69-.22,0-.5.09-1,.13-1.5A10.78,10.78,0,0,0,125.22,62.32Zm127.65,6.11A51.08,51.08,0,0,1,233.66,77a32.6,32.6,0,0,1-27.34-6.54,4.25,4.25,0,0,1-1.18-5.44,26.65,26.65,0,0,1,11.2-10.83c.07,0,.18,0,.28,0-2.9,7.35-1.48,13.42,4,17.06a12.78,12.78,0,0,0,16.06-1.5c3.69-3.64,5.82-10.53.72-17.52,6.58,1.6,12.31,4.4,18,7.45a2.17,2.17,0,0,0-.31-.36c-6.69-4.9-14-8.51-22.28-9.62a30.81,30.81,0,0,0-25.35,7.79,67.25,67.25,0,0,0-7.26,7.82,14,14,0,0,0-2.15,4.42,3,3,0,0,0,.77,3.45c1.51,1.26,2.93,1.11,4.28-.6.82-1,1.31-1.14,2.32-.11A11.23,11.23,0,0,0,209,74.75q24.3,10.37,44.74-6.4a.55.55,0,0,0,.16-.54C253.53,68,253.19,68.21,252.87,68.43ZM227.32,56.19a4.61,4.61,0,0,1,5.14,4.15,4.67,4.67,0,1,1-9.29,1A4.59,4.59,0,0,1,227.32,56.19Zm-5.39,3.65c.11,1.23.2,2.21.3,3.35L217.42,65c-.2-2.07-.38-4-.58-6.11Zm35.44-1.11a48.25,48.25,0,0,0-21.47-12c-10.1-2.45-19.61-.63-28.56,4.47a61.93,61.93,0,0,0-13.56,10.67,11.23,11.23,0,0,0-1.27,2c0,.5.09,1,.13,1.5,1.33,1.61,2.1,1.67,3.69.23A15.08,15.08,0,0,0,197.84,64c6.19-7.88,13.94-13.39,23.86-15.46a35.62,35.62,0,0,1,23.55,3.34,137.73,137.73,0,0,1,12.81,7.68C257.83,59.25,257.62,59,257.37,58.73Zm0,0a48.25,48.25,0,0,0-21.47-12c-10.1-2.45-19.61-.63-28.56,4.47a61.93,61.93,0,0,0-13.56,10.67,11.23,11.23,0,0,0-1.27,2c0,.5.09,1,.13,1.5,1.33,1.61,2.1,1.67,3.69.23A15.08,15.08,0,0,0,197.84,64c6.19-7.88,13.94-13.39,23.86-15.46a35.62,35.62,0,0,1,23.55,3.34,137.73,137.73,0,0,1,12.81,7.68C257.83,59.25,257.62,59,257.37,58.73Zm-4.5,9.7A51.08,51.08,0,0,1,233.66,77a32.6,32.6,0,0,1-27.34-6.54,4.25,4.25,0,0,1-1.18-5.44,26.65,26.65,0,0,1,11.2-10.83c.07,0,.18,0,.28,0-2.9,7.35-1.48,13.42,4,17.06a12.78,12.78,0,0,0,16.06-1.5c3.69-3.64,5.82-10.53.72-17.52,6.58,1.6,12.31,4.4,18,7.45a2.17,2.17,0,0,0-.31-.36c-6.69-4.9-14-8.51-22.28-9.62a30.81,30.81,0,0,0-25.35,7.79,67.25,67.25,0,0,0-7.26,7.82,14,14,0,0,0-2.15,4.42,3,3,0,0,0,.77,3.45c1.51,1.26,2.93,1.11,4.28-.6.82-1,1.31-1.14,2.32-.11A11.23,11.23,0,0,0,209,74.75q24.3,10.37,44.74-6.4a.55.55,0,0,0,.16-.54C253.53,68,253.19,68.21,252.87,68.43ZM227.32,56.19a4.61,4.61,0,0,1,5.14,4.15,4.67,4.67,0,1,1-9.29,1A4.59,4.59,0,0,1,227.32,56.19Zm-5.39,3.65c.11,1.23.2,2.21.3,3.35L217.42,65c-.2-2.07-.38-4-.58-6.11Zm-96.71,2.48a62.3,62.3,0,0,0-13.56-10.67c-8.95-5.09-18.45-6.91-28.56-4.47a48.18,48.18,0,0,0-21.46,12,8.64,8.64,0,0,0-.7.78,139.07,139.07,0,0,1,12.81-7.68A35.62,35.62,0,0,1,97.3,48.91C107.22,51,115,56.48,121.16,64.37A14.14,14.14,0,0,0,122.67,66c1.59,1.45,2.36,1.39,3.69-.22,0-.5.09-1,.13-1.5A10.78,10.78,0,0,0,125.22,62.32Zm-4.28,7.89a14,14,0,0,0-2.15-4.42A65.66,65.66,0,0,0,111.53,58a30.81,30.81,0,0,0-25.35-7.79c-8.31,1.11-15.59,4.71-22.28,9.62a2.77,2.77,0,0,0-.31.36c5.71-3.05,11.44-5.85,18-7.46-5.1,7-3,13.89.73,17.53a12.76,12.76,0,0,0,16,1.5c5.47-3.65,6.89-9.71,4-17.06.1,0,.21-.06.29,0a26.62,26.62,0,0,1,11.19,10.83,4.24,4.24,0,0,1-1.18,5.44,32.6,32.6,0,0,1-27.34,6.54,51.08,51.08,0,0,1-19.21-8.61c-.32-.22-.66-.42-1-.62a.55.55,0,0,0,.16.54Q85.73,85.56,110,75.17A11.23,11.23,0,0,0,113.57,73c1-1,1.5-.94,2.32.11,1.35,1.71,2.77,1.86,4.28.6A3,3,0,0,0,120.94,70.21Zm-40.3-5c-.2-2.07-.38-4-.58-6.11l5.09.92c.11,1.24.2,2.22.3,3.36Zm15.21-3.78a2,2,0,0,1,0,.25c0,.15,0,.3-.06.44a5.82,5.82,0,0,1-.25.84l-.14.3a1.28,1.28,0,0,1-.11.2.75.75,0,0,1-.07.12l-.14.22a1.07,1.07,0,0,1-.15.22,5.6,5.6,0,0,1-.39.46,4.29,4.29,0,0,1-.45.4l-.22.17a4.3,4.3,0,0,1-.65.39l-.37.16a4.54,4.54,0,0,1-.69.21l-.26.05-.35,0a3,3,0,0,1-.6,0,.89.89,0,0,1-.23,0,4.76,4.76,0,0,1-4.16-5.18,4.61,4.61,0,0,1,5.14-4.15,4.52,4.52,0,0,1,.53.09,3.44,3.44,0,0,1,.46.12l.43.16a3.56,3.56,0,0,1,.55.28l.2.13a5.58,5.58,0,0,1,.54.42l.3.3a4.91,4.91,0,0,1,.39.51q.16.25.3.51c.07.14.13.29.19.44s.09.26.12.39a2.88,2.88,0,0,1,.07.28c0,.11,0,.21,0,.31a5.06,5.06,0,0,1,0,.68A2.17,2.17,0,0,1,95.85,61.48Zm25.09,8.73a14,14,0,0,0-2.15-4.42A65.66,65.66,0,0,0,111.53,58a30.81,30.81,0,0,0-25.35-7.79c-8.31,1.11-15.59,4.71-22.28,9.62a2.77,2.77,0,0,0-.31.36c5.71-3.05,11.44-5.85,18-7.46-5.1,7-3,13.89.73,17.53a12.76,12.76,0,0,0,16,1.5c5.47-3.65,6.89-9.71,4-17.06.1,0,.21-.06.29,0a26.62,26.62,0,0,1,11.19,10.83,4.24,4.24,0,0,1-1.18,5.44,32.6,32.6,0,0,1-27.34,6.54,51.08,51.08,0,0,1-19.21-8.61c-.32-.22-.66-.42-1-.62a.55.55,0,0,0,.16.54Q85.73,85.56,110,75.17A11.23,11.23,0,0,0,113.57,73c1-1,1.5-.94,2.32.11,1.35,1.71,2.77,1.86,4.28.6A3,3,0,0,0,120.94,70.21Zm-40.3-5c-.2-2.07-.38-4-.58-6.11l5.09.92c.11,1.24.2,2.22.3,3.36Zm15.21-3.78a2,2,0,0,1,0,.25c0,.15,0,.3-.06.44a5.82,5.82,0,0,1-.25.84l-.14.3a1.28,1.28,0,0,1-.11.2.75.75,0,0,1-.07.12l-.14.22a1.07,1.07,0,0,1-.15.22,5.6,5.6,0,0,1-.39.46,4.29,4.29,0,0,1-.45.4l-.22.17a4.3,4.3,0,0,1-.65.39l-.37.16a4.54,4.54,0,0,1-.69.21l-.26.05-.35,0a3,3,0,0,1-.6,0,.89.89,0,0,1-.23,0,4.76,4.76,0,0,1-4.16-5.18,4.61,4.61,0,0,1,5.14-4.15,4.52,4.52,0,0,1,.53.09,3.44,3.44,0,0,1,.46.12l.43.16a3.56,3.56,0,0,1,.55.28l.2.13a5.58,5.58,0,0,1,.54.42l.3.3a4.91,4.91,0,0,1,.39.51q.16.25.3.51c.07.14.13.29.19.44s.09.26.12.39a2.88,2.88,0,0,1,.07.28c0,.11,0,.21,0,.31a5.06,5.06,0,0,1,0,.68A2.17,2.17,0,0,1,95.85,61.48Zm29.37.84a62.3,62.3,0,0,0-13.56-10.67c-8.95-5.09-18.45-6.91-28.56-4.47a48.18,48.18,0,0,0-21.46,12,8.64,8.64,0,0,0-.7.78,139.07,139.07,0,0,1,12.81-7.68A35.62,35.62,0,0,1,97.3,48.91C107.22,51,115,56.48,121.16,64.37A14.14,14.14,0,0,0,122.67,66c1.59,1.45,2.36,1.39,3.69-.22,0-.5.09-1,.13-1.5A10.78,10.78,0,0,0,125.22,62.32Zm127.65,6.11A51.08,51.08,0,0,1,233.66,77a32.6,32.6,0,0,1-27.34-6.54,4.25,4.25,0,0,1-1.18-5.44,26.65,26.65,0,0,1,11.2-10.83c.07,0,.18,0,.28,0-2.9,7.35-1.48,13.42,4,17.06a12.78,12.78,0,0,0,16.06-1.5c3.69-3.64,5.82-10.53.72-17.52,6.58,1.6,12.31,4.4,18,7.45a2.17,2.17,0,0,0-.31-.36c-6.69-4.9-14-8.51-22.28-9.62a30.81,30.81,0,0,0-25.35,7.79,67.25,67.25,0,0,0-7.26,7.82,14,14,0,0,0-2.15,4.42,3,3,0,0,0,.77,3.45c1.51,1.26,2.93,1.11,4.28-.6.82-1,1.31-1.14,2.32-.11A11.23,11.23,0,0,0,209,74.75q24.3,10.37,44.74-6.4a.55.55,0,0,0,.16-.54C253.53,68,253.19,68.21,252.87,68.43ZM227.32,56.19a4.61,4.61,0,0,1,5.14,4.15,4.67,4.67,0,1,1-9.29,1A4.59,4.59,0,0,1,227.32,56.19Zm-5.39,3.65c.11,1.23.2,2.21.3,3.35L217.42,65c-.2-2.07-.38-4-.58-6.11Zm35.44-1.11a48.25,48.25,0,0,0-21.47-12c-10.1-2.45-19.61-.63-28.56,4.47a61.93,61.93,0,0,0-13.56,10.67,11.23,11.23,0,0,0-1.27,2c0,.5.09,1,.13,1.5,1.33,1.61,2.1,1.67,3.69.23A15.08,15.08,0,0,0,197.84,64c6.19-7.88,13.94-13.39,23.86-15.46a35.62,35.62,0,0,1,23.55,3.34,137.73,137.73,0,0,1,12.81,7.68C257.83,59.25,257.62,59,257.37,58.73Zm0,0a48.25,48.25,0,0,0-21.47-12c-10.1-2.45-19.61-.63-28.56,4.47a61.93,61.93,0,0,0-13.56,10.67,11.23,11.23,0,0,0-1.27,2c0,.5.09,1,.13,1.5,1.33,1.61,2.1,1.67,3.69.23A15.08,15.08,0,0,0,197.84,64c6.19-7.88,13.94-13.39,23.86-15.46a35.62,35.62,0,0,1,23.55,3.34,137.73,137.73,0,0,1,12.81,7.68C257.83,59.25,257.62,59,257.37,58.73Zm-4.5,9.7A51.08,51.08,0,0,1,233.66,77a32.6,32.6,0,0,1-27.34-6.54,4.25,4.25,0,0,1-1.18-5.44,26.65,26.65,0,0,1,11.2-10.83c.07,0,.18,0,.28,0-2.9,7.35-1.48,13.42,4,17.06a12.78,12.78,0,0,0,16.06-1.5c3.69-3.64,5.82-10.53.72-17.52,6.58,1.6,12.31,4.4,18,7.45a2.17,2.17,0,0,0-.31-.36c-6.69-4.9-14-8.51-22.28-9.62a30.81,30.81,0,0,0-25.35,7.79,67.25,67.25,0,0,0-7.26,7.82,14,14,0,0,0-2.15,4.42,3,3,0,0,0,.77,3.45c1.51,1.26,2.93,1.11,4.28-.6.82-1,1.31-1.14,2.32-.11A11.23,11.23,0,0,0,209,74.75q24.3,10.37,44.74-6.4a.55.55,0,0,0,.16-.54C253.53,68,253.19,68.21,252.87,68.43ZM227.32,56.19a4.61,4.61,0,0,1,5.14,4.15,4.67,4.67,0,1,1-9.29,1A4.59,4.59,0,0,1,227.32,56.19Zm-5.39,3.65c.11,1.23.2,2.21.3,3.35L217.42,65c-.2-2.07-.38-4-.58-6.11Zm-96.71,2.48a62.3,62.3,0,0,0-13.56-10.67c-8.95-5.09-18.45-6.91-28.56-4.47a48.18,48.18,0,0,0-21.46,12,8.64,8.64,0,0,0-.7.78,139.07,139.07,0,0,1,12.81-7.68A35.62,35.62,0,0,1,97.3,48.91C107.22,51,115,56.48,121.16,64.37A14.14,14.14,0,0,0,122.67,66c1.59,1.45,2.36,1.39,3.69-.22,0-.5.09-1,.13-1.5A10.78,10.78,0,0,0,125.22,62.32Zm-4.28,7.89a14,14,0,0,0-2.15-4.42A65.66,65.66,0,0,0,111.53,58a30.81,30.81,0,0,0-25.35-7.79c-8.31,1.11-15.59,4.71-22.28,9.62a2.77,2.77,0,0,0-.31.36c5.71-3.05,11.44-5.85,18-7.46-5.1,7-3,13.89.73,17.53a12.76,12.76,0,0,0,16,1.5c5.47-3.65,6.89-9.71,4-17.06.1,0,.21-.06.29,0a26.62,26.62,0,0,1,11.19,10.83,4.24,4.24,0,0,1-1.18,5.44,32.6,32.6,0,0,1-27.34,6.54,51.08,51.08,0,0,1-19.21-8.61c-.32-.22-.66-.42-1-.62a.55.55,0,0,0,.16.54Q85.73,85.56,110,75.17A11.23,11.23,0,0,0,113.57,73c1-1,1.5-.94,2.32.11,1.35,1.71,2.77,1.86,4.28.6A3,3,0,0,0,120.94,70.21Zm-40.3-5c-.2-2.07-.38-4-.58-6.11l5.09.92c.11,1.24.2,2.22.3,3.36Zm15.21-3.78a2,2,0,0,1,0,.25c0,.15,0,.3-.06.44a5.82,5.82,0,0,1-.25.84l-.14.3a1.28,1.28,0,0,1-.11.2.75.75,0,0,1-.07.12l-.14.22a1.07,1.07,0,0,1-.15.22,5.6,5.6,0,0,1-.39.46,4.29,4.29,0,0,1-.45.4l-.22.17a4.3,4.3,0,0,1-.65.39l-.37.16a4.54,4.54,0,0,1-.69.21l-.26.05-.35,0a3,3,0,0,1-.6,0,.89.89,0,0,1-.23,0,4.76,4.76,0,0,1-4.16-5.18,4.61,4.61,0,0,1,5.14-4.15,4.52,4.52,0,0,1,.53.09,3.44,3.44,0,0,1,.46.12l.43.16a3.56,3.56,0,0,1,.55.28l.2.13a5.58,5.58,0,0,1,.54.42l.3.3a4.91,4.91,0,0,1,.39.51q.16.25.3.51c.07.14.13.29.19.44s.09.26.12.39a2.88,2.88,0,0,1,.07.28c0,.11,0,.21,0,.31a5.06,5.06,0,0,1,0,.68A2.17,2.17,0,0,1,95.85,61.48Zm25.09,8.73a14,14,0,0,0-2.15-4.42A65.66,65.66,0,0,0,111.53,58a30.81,30.81,0,0,0-25.35-7.79c-8.31,1.11-15.59,4.71-22.28,9.62a2.77,2.77,0,0,0-.31.36c5.71-3.05,11.44-5.85,18-7.46-5.1,7-3,13.89.73,17.53a12.76,12.76,0,0,0,16,1.5c5.47-3.65,6.89-9.71,4-17.06.1,0,.21-.06.29,0a26.62,26.62,0,0,1,11.19,10.83,4.24,4.24,0,0,1-1.18,5.44,32.6,32.6,0,0,1-27.34,6.54,51.08,51.08,0,0,1-19.21-8.61c-.32-.22-.66-.42-1-.62a.55.55,0,0,0,.16.54Q85.73,85.56,110,75.17A11.23,11.23,0,0,0,113.57,73c1-1,1.5-.94,2.32.11,1.35,1.71,2.77,1.86,4.28.6A3,3,0,0,0,120.94,70.21Zm-40.3-5c-.2-2.07-.38-4-.58-6.11l5.09.92c.11,1.24.2,2.22.3,3.36Zm15.21-3.78a2,2,0,0,1,0,.25c0,.15,0,.3-.06.44a5.82,5.82,0,0,1-.25.84l-.14.3a1.28,1.28,0,0,1-.11.2.75.75,0,0,1-.07.12l-.14.22a1.07,1.07,0,0,1-.15.22,5.6,5.6,0,0,1-.39.46,4.29,4.29,0,0,1-.45.4l-.22.17a4.3,4.3,0,0,1-.65.39l-.37.16a4.54,4.54,0,0,1-.69.21l-.26.05-.35,0a3,3,0,0,1-.6,0,.89.89,0,0,1-.23,0,4.76,4.76,0,0,1-4.16-5.18,4.61,4.61,0,0,1,5.14-4.15,4.52,4.52,0,0,1,.53.09,3.44,3.44,0,0,1,.46.12l.43.16a3.56,3.56,0,0,1,.55.28l.2.13a5.58,5.58,0,0,1,.54.42l.3.3a4.91,4.91,0,0,1,.39.51q.16.25.3.51c.07.14.13.29.19.44s.09.26.12.39a2.88,2.88,0,0,1,.07.28c0,.11,0,.21,0,.31a5.06,5.06,0,0,1,0,.68A2.17,2.17,0,0,1,95.85,61.48Zm29.37.84a62.3,62.3,0,0,0-13.56-10.67c-8.95-5.09-18.45-6.91-28.56-4.47a48.18,48.18,0,0,0-21.46,12,8.64,8.64,0,0,0-.7.78,139.07,139.07,0,0,1,12.81-7.68A35.62,35.62,0,0,1,97.3,48.91C107.22,51,115,56.48,121.16,64.37A14.14,14.14,0,0,0,122.67,66c1.59,1.45,2.36,1.39,3.69-.22,0-.5.09-1,.13-1.5A10.78,10.78,0,0,0,125.22,62.32Zm127.65,6.11A51.08,51.08,0,0,1,233.66,77a32.6,32.6,0,0,1-27.34-6.54,4.25,4.25,0,0,1-1.18-5.44,26.65,26.65,0,0,1,11.2-10.83c.07,0,.18,0,.28,0-2.9,7.35-1.48,13.42,4,17.06a12.78,12.78,0,0,0,16.06-1.5c3.69-3.64,5.82-10.53.72-17.52,6.58,1.6,12.31,4.4,18,7.45a2.17,2.17,0,0,0-.31-.36c-6.69-4.9-14-8.51-22.28-9.62a30.81,30.81,0,0,0-25.35,7.79,67.25,67.25,0,0,0-7.26,7.82,14,14,0,0,0-2.15,4.42,3,3,0,0,0,.77,3.45c1.51,1.26,2.93,1.11,4.28-.6.82-1,1.31-1.14,2.32-.11A11.23,11.23,0,0,0,209,74.75q24.3,10.37,44.74-6.4a.55.55,0,0,0,.16-.54C253.53,68,253.19,68.21,252.87,68.43ZM227.32,56.19a4.61,4.61,0,0,1,5.14,4.15,4.67,4.67,0,1,1-9.29,1A4.59,4.59,0,0,1,227.32,56.19Zm-5.39,3.65c.11,1.23.2,2.21.3,3.35L217.42,65c-.2-2.07-.38-4-.58-6.11Zm35.44-1.11a48.25,48.25,0,0,0-21.47-12c-10.1-2.45-19.61-.63-28.56,4.47a61.93,61.93,0,0,0-13.56,10.67,11.23,11.23,0,0,0-1.27,2c0,.5.09,1,.13,1.5,1.33,1.61,2.1,1.67,3.69.23A15.08,15.08,0,0,0,197.84,64c6.19-7.88,13.94-13.39,23.86-15.46a35.62,35.62,0,0,1,23.55,3.34,137.73,137.73,0,0,1,12.81,7.68C257.83,59.25,257.62,59,257.37,58.73ZM221.7,48.49a35.62,35.62,0,0,1,23.55,3.34,137.73,137.73,0,0,1,12.81,7.68c-.23-.26-.44-.54-.69-.78a48.25,48.25,0,0,0-21.47-12c-10.1-2.45-19.61-.63-28.56,4.47a61.93,61.93,0,0,0-13.56,10.67,11.23,11.23,0,0,0-1.27,2c0,.5.09,1,.13,1.5,1.33,1.61,2.1,1.67,3.69.23A15.08,15.08,0,0,0,197.84,64C204,56.07,211.78,50.56,221.7,48.49Zm33.4,10.89c-6.69-4.9-14-8.51-22.28-9.62a30.81,30.81,0,0,0-25.35,7.79,67.25,67.25,0,0,0-7.26,7.82,14,14,0,0,0-2.15,4.42,3,3,0,0,0,.77,3.45c1.51,1.26,2.93,1.11,4.28-.6.82-1,1.31-1.14,2.32-.11A11.23,11.23,0,0,0,209,74.75q24.3,10.37,44.74-6.4a.55.55,0,0,0,.16-.54c-.33.21-.67.4-1,.62A51.08,51.08,0,0,1,233.66,77a32.6,32.6,0,0,1-27.34-6.54,4.25,4.25,0,0,1-1.18-5.44,26.65,26.65,0,0,1,11.2-10.83c.07,0,.18,0,.28,0-2.9,7.35-1.48,13.42,4,17.06a12.78,12.78,0,0,0,16.06-1.5c3.69-3.64,5.82-10.53.72-17.52,6.58,1.6,12.31,4.4,18,7.45A2.17,2.17,0,0,0,255.1,59.38ZM217.42,65c-.2-2.07-.38-4-.58-6.11l5.09.93c.11,1.23.2,2.21.3,3.35Zm10.88.5a4.73,4.73,0,0,1-5.13-4.21,4.67,4.67,0,0,1,9.29-1A4.76,4.76,0,0,1,228.3,65.52Zm-103.08-3.2a62.3,62.3,0,0,0-13.56-10.67c-8.95-5.09-18.45-6.91-28.56-4.47a48.18,48.18,0,0,0-21.46,12,8.64,8.64,0,0,0-.7.78,139.07,139.07,0,0,1,12.81-7.68A35.62,35.62,0,0,1,97.3,48.91C107.22,51,115,56.48,121.16,64.37A14.14,14.14,0,0,0,122.67,66c1.59,1.45,2.36,1.39,3.69-.22,0-.5.09-1,.13-1.5A10.78,10.78,0,0,0,125.22,62.32Zm-6.43,3.47A65.66,65.66,0,0,0,111.53,58a30.81,30.81,0,0,0-25.35-7.79c-8.31,1.11-15.59,4.71-22.28,9.62a2.77,2.77,0,0,0-.31.36c5.71-3.05,11.44-5.85,18-7.46-5.1,7-3,13.89.73,17.53a12.76,12.76,0,0,0,16,1.5c5.47-3.65,6.89-9.71,4-17.06.1,0,.21-.06.29,0a26.62,26.62,0,0,1,11.19,10.83,4.24,4.24,0,0,1-1.18,5.44,32.6,32.6,0,0,1-27.34,6.54,51.08,51.08,0,0,1-19.21-8.61c-.32-.22-.66-.42-1-.62a.55.55,0,0,0,.16.54Q85.73,85.56,110,75.17A11.23,11.23,0,0,0,113.57,73c1-1,1.5-.94,2.32.11,1.35,1.71,2.77,1.86,4.28.6a3,3,0,0,0,.77-3.45A14,14,0,0,0,118.79,65.79Zm-38.15-.53c-.2-2.07-.38-4-.58-6.11l5.09.92c.11,1.24.2,2.22.3,3.36Zm15.21-3.78a2,2,0,0,1,0,.25c0,.15,0,.3-.06.44a5.82,5.82,0,0,1-.25.84l-.14.3a1.28,1.28,0,0,1-.11.2.75.75,0,0,1-.07.12l-.14.22a1.07,1.07,0,0,1-.15.22,5.6,5.6,0,0,1-.39.46,4.29,4.29,0,0,1-.45.4l-.22.17a4.3,4.3,0,0,1-.65.39l-.37.16a4.54,4.54,0,0,1-.69.21l-.26.05-.35,0a3,3,0,0,1-.6,0,.89.89,0,0,1-.23,0,4.76,4.76,0,0,1-4.16-5.18,4.61,4.61,0,0,1,5.14-4.15,4.52,4.52,0,0,1,.53.09,3.44,3.44,0,0,1,.46.12l.43.16a3.56,3.56,0,0,1,.55.28l.2.13a5.58,5.58,0,0,1,.54.42l.3.3a4.91,4.91,0,0,1,.39.51q.16.25.3.51c.07.14.13.29.19.44s.09.26.12.39a2.88,2.88,0,0,1,.07.28c0,.11,0,.21,0,.31a5.06,5.06,0,0,1,0,.68A2.17,2.17,0,0,1,95.85,61.48ZM310.41.59l-17.22,4.3L274.63,9.46l-19.1,4.31L248,15.38l-12.91,2.69-14.53,3.77-26.7,8.27-.4.14c-2,.78-22.25,9-31.65,13.48a7.77,7.77,0,0,1-6.71,0c-11.3-5.34-29.74-11.86-31.8-12.67l-.4-.14s-7.14-3-26.7-8.27L68.76,16.2l-7.53-1.61-19.1-4.31L23.56,5.71,6.35,1.41S-3.74-2.82,1.51,11.36C6.66,24.74,10.38,30,10.38,30s8.92,15.37,21,32c11.07,13.45,33.76,39.22,64.25,40.81s47.63-18.13,47.63-18.13,5.45-5,11-11a6.09,6.09,0,0,1,8.95,0c5.27,5.68,10.25,10.24,10.25,10.24S190.61,103.59,221.1,102s53.17-27.36,64.25-40.81c12.1-16.68,21-32,21-32s3.73-5.22,8.88-18.6C320.49-3.64,310.41.59,310.41.59ZM47.28,13.4a1.88,1.88,0,1,1-1.87,1.87A1.88,1.88,0,0,1,47.28,13.4ZM31.67,9.59a3.73,3.73,0,0,1,1.42-.4A10,10,0,0,1,41,14.3c2.19,4,7.66,7.25,10.12,8.58a1.54,1.54,0,0,1-.59,2.89h-.07C47.8,26,38.38,22,32.76,16.65,28.21,12.32,30.53,10.28,31.67,9.59ZM16.56,5.85A3.62,3.62,0,0,1,18,5.59a10,10,0,0,1,7.41,5.83c1.82,4.13,8.57,9.33,10.9,10.89a1.54,1.54,0,0,1-.85,2.83h-.08c-2.68,0-13.3-6.32-18.4-12.16C12.86,8.25,15.36,6.43,16.56,5.85ZM4.41,13.07C.16,8.45,2.61,6.56,3.8,6a3.75,3.75,0,0,1,1.44-.3,10,10,0,0,1,7.56,5.63c1.92,4.09,8.73,8.62,11.1,10.12a1.54,1.54,0,0,1-.78,2.84H23C20.36,24.27,9.66,18.77,4.41,13.07ZM12,27a1.88,1.88,0,1,1,1.88-1.87A1.87,1.87,0,0,1,12,27Zm5.2,7.66a1.88,1.88,0,1,1,1.87-1.87A1.88,1.88,0,0,1,17.2,34.65ZM29.5,56.53a1.88,1.88,0,1,1,1.88-1.87A1.87,1.87,0,0,1,29.5,56.53Zm-3.64-6.88a24,24,0,0,1-5.17-14.83,1.9,1.9,0,0,1,.09-.58c.4-1.28,2.23-6.58,5.08-7.38,3.24-.91,2.68,1.91,2.68,1.91a26,26,0,0,0-1.83,7.66c-.27,4.1,4.31,8.23,4.72,10C31.52,47,32.37,53.48,25.86,49.65ZM148.25,62.28C146,74.28,125.42,84,125.42,84s-21,12.18-43.9,4.79C55.74,80.56,42.15,58.86,34.07,45c-8.76-16.69,9.71-17.24,9.71-17.24s1.83-.15,4.73-.18c12.43-.59,42.17,6.77,42.17,6.77l35.81,10.24s12,3.84,16.84,7.47S148.28,57.82,148.25,62.28ZM291.34,10.6a10,10,0,0,1,7.41-5.83A3.65,3.65,0,0,1,300.2,5c1.2.58,3.7,2.4-.44,7.13C294.67,18,284,24.27,281.37,24.32h-.08a1.54,1.54,0,0,1-.85-2.83C282.76,19.93,289.52,14.73,291.34,10.6Zm-22,2a1.88,1.88,0,1,1-1.87,1.87A1.88,1.88,0,0,1,269.32,12.58Zm-3.69,9.48c2.46-1.33,7.93-4.62,10.12-8.58a10,10,0,0,1,7.92-5.11,3.78,3.78,0,0,1,1.42.4c1.14.69,3.46,2.73-1.1,7.06-5.61,5.33-15,9.33-17.7,9.13h-.08A1.54,1.54,0,0,1,265.63,22.06ZM282.8,45c-8.08,13.83-21.68,35.53-47.45,43.78C212.5,96.2,191.45,84,191.45,84s-20.6-9.74-22.83-21.74c0-4.46.13-6.57,4.92-10.19s16.83-7.47,16.83-7.47l35.82-10.24s29.74-7.36,42.17-6.77c2.9,0,4.73.18,4.73.18S291.55,28.34,282.8,45Zm4.3,10.68A1.88,1.88,0,1,1,289,53.84,1.88,1.88,0,0,1,287.1,55.71Zm3.8-6.88c-6.51,3.83-5.66-2.62-5.57-3.17.41-1.82,5-6,4.71-10.05A25.84,25.84,0,0,0,288.22,28s-.57-2.82,2.68-1.91c2.85.8,4.67,6.1,5.08,7.38a1.9,1.9,0,0,1,.09.58A24,24,0,0,1,290.9,48.83Zm8.51-15A1.88,1.88,0,1,1,301.28,32,1.88,1.88,0,0,1,299.41,33.83Zm5.19-7.66a1.88,1.88,0,1,1,1.88-1.87A1.87,1.87,0,0,1,304.6,26.17Zm7.74-13.92c-5.24,5.7-16,11.2-18.62,11.18h-.08a1.54,1.54,0,0,1-.78-2.84c2.36-1.5,9.18-6,11.1-10.12a10,10,0,0,1,7.56-5.63,3.79,3.79,0,0,1,1.44.3C314.15,5.74,316.6,7.63,312.34,12.25ZM235.9,46.77c-10.1-2.45-19.61-.63-28.56,4.47a61.93,61.93,0,0,0-13.56,10.67,11.23,11.23,0,0,0-1.27,2c0,.5.09,1,.13,1.5,1.33,1.61,2.1,1.67,3.69.23A15.08,15.08,0,0,0,197.84,64c6.19-7.88,13.94-13.39,23.86-15.46a35.62,35.62,0,0,1,23.55,3.34,137.73,137.73,0,0,1,12.81,7.68c-.23-.26-.44-.54-.69-.78A48.25,48.25,0,0,0,235.9,46.77Zm19.2,12.61c-6.69-4.9-14-8.51-22.28-9.62a30.81,30.81,0,0,0-25.35,7.79,67.25,67.25,0,0,0-7.26,7.82,14,14,0,0,0-2.15,4.42,3,3,0,0,0,.77,3.45c1.51,1.26,2.93,1.11,4.28-.6.82-1,1.31-1.14,2.32-.11A11.23,11.23,0,0,0,209,74.75q24.3,10.37,44.74-6.4a.55.55,0,0,0,.16-.54c-.33.21-.67.4-1,.62A51.08,51.08,0,0,1,233.66,77a32.6,32.6,0,0,1-27.34-6.54,4.25,4.25,0,0,1-1.18-5.44,26.65,26.65,0,0,1,11.2-10.83c.07,0,.18,0,.28,0-2.9,7.35-1.48,13.42,4,17.06a12.78,12.78,0,0,0,16.06-1.5c3.69-3.64,5.82-10.53.72-17.52,6.58,1.6,12.31,4.4,18,7.45A2.17,2.17,0,0,0,255.1,59.38ZM217.42,65c-.2-2.07-.38-4-.58-6.11l5.09.93c.11,1.23.2,2.21.3,3.35Zm10.88.5a4.73,4.73,0,0,1-5.13-4.21,4.67,4.67,0,0,1,9.29-1A4.76,4.76,0,0,1,228.3,65.52ZM111.66,51.65c-8.95-5.09-18.45-6.91-28.56-4.47a48.18,48.18,0,0,0-21.46,12,8.64,8.64,0,0,0-.7.78,139.07,139.07,0,0,1,12.81-7.68A35.62,35.62,0,0,1,97.3,48.91C107.22,51,115,56.48,121.16,64.37A14.14,14.14,0,0,0,122.67,66c1.59,1.45,2.36,1.39,3.69-.22,0-.5.09-1,.13-1.5a10.78,10.78,0,0,0-1.27-2A62.3,62.3,0,0,0,111.66,51.65Zm7.13,14.14A65.66,65.66,0,0,0,111.53,58a30.81,30.81,0,0,0-25.35-7.79c-8.31,1.11-15.59,4.71-22.28,9.62a2.77,2.77,0,0,0-.31.36c5.71-3.05,11.44-5.85,18-7.46-5.1,7-3,13.89.73,17.53a12.76,12.76,0,0,0,16,1.5c5.47-3.65,6.89-9.71,4-17.06.1,0,.21-.06.29,0a26.62,26.62,0,0,1,11.19,10.83,4.24,4.24,0,0,1-1.18,5.44,32.6,32.6,0,0,1-27.34,6.54,51.08,51.08,0,0,1-19.21-8.61c-.32-.22-.66-.42-1-.62a.55.55,0,0,0,.16.54Q85.73,85.56,110,75.17A11.23,11.23,0,0,0,113.57,73c1-1,1.5-.94,2.32.11,1.35,1.71,2.77,1.86,4.28.6a3,3,0,0,0,.77-3.45A14,14,0,0,0,118.79,65.79Zm-38.15-.53c-.2-2.07-.38-4-.58-6.11l5.09.92c.11,1.24.2,2.22.3,3.36Zm15.21-3.78a2,2,0,0,1,0,.25c0,.15,0,.3-.06.44a5.82,5.82,0,0,1-.25.84l-.14.3a1.28,1.28,0,0,1-.11.2.75.75,0,0,1-.07.12l-.14.22a1.07,1.07,0,0,1-.15.22,5.6,5.6,0,0,1-.39.46,4.29,4.29,0,0,1-.45.4l-.22.17a4.3,4.3,0,0,1-.65.39l-.37.16a4.54,4.54,0,0,1-.69.21l-.26.05-.35,0a3,3,0,0,1-.6,0,.89.89,0,0,1-.23,0,4.76,4.76,0,0,1-4.16-5.18,4.61,4.61,0,0,1,5.14-4.15,4.52,4.52,0,0,1,.53.09,3.44,3.44,0,0,1,.46.12l.43.16a3.56,3.56,0,0,1,.55.28l.2.13a5.58,5.58,0,0,1,.54.42l.3.3a4.91,4.91,0,0,1,.39.51q.16.25.3.51c.07.14.13.29.19.44s.09.26.12.39a2.88,2.88,0,0,1,.07.28c0,.11,0,.21,0,.31a5.06,5.06,0,0,1,0,.68A2.17,2.17,0,0,1,95.85,61.48Zm25.09,8.73a14,14,0,0,0-2.15-4.42A65.66,65.66,0,0,0,111.53,58a30.81,30.81,0,0,0-25.35-7.79c-8.31,1.11-15.59,4.71-22.28,9.62a2.77,2.77,0,0,0-.31.36c5.71-3.05,11.44-5.85,18-7.46-5.1,7-3,13.89.73,17.53a12.76,12.76,0,0,0,16,1.5c5.47-3.65,6.89-9.71,4-17.06.1,0,.21-.06.29,0a26.62,26.62,0,0,1,11.19,10.83,4.24,4.24,0,0,1-1.18,5.44,32.6,32.6,0,0,1-27.34,6.54,51.08,51.08,0,0,1-19.21-8.61c-.32-.22-.66-.42-1-.62a.55.55,0,0,0,.16.54Q85.73,85.56,110,75.17A11.23,11.23,0,0,0,113.57,73c1-1,1.5-.94,2.32.11,1.35,1.71,2.77,1.86,4.28.6A3,3,0,0,0,120.94,70.21Zm-40.3-5c-.2-2.07-.38-4-.58-6.11l5.09.92c.11,1.24.2,2.22.3,3.36Zm15.21-3.78a2,2,0,0,1,0,.25c0,.15,0,.3-.06.44a5.82,5.82,0,0,1-.25.84l-.14.3a1.28,1.28,0,0,1-.11.2.75.75,0,0,1-.07.12l-.14.22a1.07,1.07,0,0,1-.15.22,5.6,5.6,0,0,1-.39.46,4.29,4.29,0,0,1-.45.4l-.22.17a4.3,4.3,0,0,1-.65.39l-.37.16a4.54,4.54,0,0,1-.69.21l-.26.05-.35,0a3,3,0,0,1-.6,0,.89.89,0,0,1-.23,0,4.76,4.76,0,0,1-4.16-5.18,4.61,4.61,0,0,1,5.14-4.15,4.52,4.52,0,0,1,.53.09,3.44,3.44,0,0,1,.46.12l.43.16a3.56,3.56,0,0,1,.55.28l.2.13a5.58,5.58,0,0,1,.54.42l.3.3a4.91,4.91,0,0,1,.39.51q.16.25.3.51c.07.14.13.29.19.44s.09.26.12.39a2.88,2.88,0,0,1,.07.28c0,.11,0,.21,0,.31a5.06,5.06,0,0,1,0,.68A2.17,2.17,0,0,1,95.85,61.48Zm29.37.84a62.3,62.3,0,0,0-13.56-10.67c-8.95-5.09-18.45-6.91-28.56-4.47a48.18,48.18,0,0,0-21.46,12,8.64,8.64,0,0,0-.7.78,139.07,139.07,0,0,1,12.81-7.68A35.62,35.62,0,0,1,97.3,48.91C107.22,51,115,56.48,121.16,64.37A14.14,14.14,0,0,0,122.67,66c1.59,1.45,2.36,1.39,3.69-.22,0-.5.09-1,.13-1.5A10.78,10.78,0,0,0,125.22,62.32Zm127.65,6.11A51.08,51.08,0,0,1,233.66,77a32.6,32.6,0,0,1-27.34-6.54,4.25,4.25,0,0,1-1.18-5.44,26.65,26.65,0,0,1,11.2-10.83c.07,0,.18,0,.28,0-2.9,7.35-1.48,13.42,4,17.06a12.78,12.78,0,0,0,16.06-1.5c3.69-3.64,5.82-10.53.72-17.52,6.58,1.6,12.31,4.4,18,7.45a2.17,2.17,0,0,0-.31-.36c-6.69-4.9-14-8.51-22.28-9.62a30.81,30.81,0,0,0-25.35,7.79,67.25,67.25,0,0,0-7.26,7.82,14,14,0,0,0-2.15,4.42,3,3,0,0,0,.77,3.45c1.51,1.26,2.93,1.11,4.28-.6.82-1,1.31-1.14,2.32-.11A11.23,11.23,0,0,0,209,74.75q24.3,10.37,44.74-6.4a.55.55,0,0,0,.16-.54C253.53,68,253.19,68.21,252.87,68.43ZM227.32,56.19a4.61,4.61,0,0,1,5.14,4.15,4.67,4.67,0,1,1-9.29,1A4.59,4.59,0,0,1,227.32,56.19Zm-5.39,3.65c.11,1.23.2,2.21.3,3.35L217.42,65c-.2-2.07-.38-4-.58-6.11Zm35.44-1.11a48.25,48.25,0,0,0-21.47-12c-10.1-2.45-19.61-.63-28.56,4.47a61.93,61.93,0,0,0-13.56,10.67,11.23,11.23,0,0,0-1.27,2c0,.5.09,1,.13,1.5,1.33,1.61,2.1,1.67,3.69.23A15.08,15.08,0,0,0,197.84,64c6.19-7.88,13.94-13.39,23.86-15.46a35.62,35.62,0,0,1,23.55,3.34,137.73,137.73,0,0,1,12.81,7.68C257.83,59.25,257.62,59,257.37,58.73Zm0,0a48.25,48.25,0,0,0-21.47-12c-10.1-2.45-19.61-.63-28.56,4.47a61.93,61.93,0,0,0-13.56,10.67,11.23,11.23,0,0,0-1.27,2c0,.5.09,1,.13,1.5,1.33,1.61,2.1,1.67,3.69.23A15.08,15.08,0,0,0,197.84,64c6.19-7.88,13.94-13.39,23.86-15.46a35.62,35.62,0,0,1,23.55,3.34,137.73,137.73,0,0,1,12.81,7.68C257.83,59.25,257.62,59,257.37,58.73Zm-4.5,9.7A51.08,51.08,0,0,1,233.66,77a32.6,32.6,0,0,1-27.34-6.54,4.25,4.25,0,0,1-1.18-5.44,26.65,26.65,0,0,1,11.2-10.83c.07,0,.18,0,.28,0-2.9,7.35-1.48,13.42,4,17.06a12.78,12.78,0,0,0,16.06-1.5c3.69-3.64,5.82-10.53.72-17.52,6.58,1.6,12.31,4.4,18,7.45a2.17,2.17,0,0,0-.31-.36c-6.69-4.9-14-8.51-22.28-9.62a30.81,30.81,0,0,0-25.35,7.79,67.25,67.25,0,0,0-7.26,7.82,14,14,0,0,0-2.15,4.42,3,3,0,0,0,.77,3.45c1.51,1.26,2.93,1.11,4.28-.6.82-1,1.31-1.14,2.32-.11A11.23,11.23,0,0,0,209,74.75q24.3,10.37,44.74-6.4a.55.55,0,0,0,.16-.54C253.53,68,253.19,68.21,252.87,68.43ZM227.32,56.19a4.61,4.61,0,0,1,5.14,4.15,4.67,4.67,0,1,1-9.29,1A4.59,4.59,0,0,1,227.32,56.19Zm-5.39,3.65c.11,1.23.2,2.21.3,3.35L217.42,65c-.2-2.07-.38-4-.58-6.11Zm-96.71,2.48a62.3,62.3,0,0,0-13.56-10.67c-8.95-5.09-18.45-6.91-28.56-4.47a48.18,48.18,0,0,0-21.46,12,8.64,8.64,0,0,0-.7.78,139.07,139.07,0,0,1,12.81-7.68A35.62,35.62,0,0,1,97.3,48.91C107.22,51,115,56.48,121.16,64.37A14.14,14.14,0,0,0,122.67,66c1.59,1.45,2.36,1.39,3.69-.22,0-.5.09-1,.13-1.5A10.78,10.78,0,0,0,125.22,62.32Zm-4.28,7.89a14,14,0,0,0-2.15-4.42A65.66,65.66,0,0,0,111.53,58a30.81,30.81,0,0,0-25.35-7.79c-8.31,1.11-15.59,4.71-22.28,9.62a2.77,2.77,0,0,0-.31.36c5.71-3.05,11.44-5.85,18-7.46-5.1,7-3,13.89.73,17.53a12.76,12.76,0,0,0,16,1.5c5.47-3.65,6.89-9.71,4-17.06.1,0,.21-.06.29,0a26.62,26.62,0,0,1,11.19,10.83,4.24,4.24,0,0,1-1.18,5.44,32.6,32.6,0,0,1-27.34,6.54,51.08,51.08,0,0,1-19.21-8.61c-.32-.22-.66-.42-1-.62a.55.55,0,0,0,.16.54Q85.73,85.56,110,75.17A11.23,11.23,0,0,0,113.57,73c1-1,1.5-.94,2.32.11,1.35,1.71,2.77,1.86,4.28.6A3,3,0,0,0,120.94,70.21Zm-40.3-5c-.2-2.07-.38-4-.58-6.11l5.09.92c.11,1.24.2,2.22.3,3.36Zm15.21-3.78a2,2,0,0,1,0,.25c0,.15,0,.3-.06.44a5.82,5.82,0,0,1-.25.84l-.14.3a1.28,1.28,0,0,1-.11.2.75.75,0,0,1-.07.12l-.14.22a1.07,1.07,0,0,1-.15.22,5.6,5.6,0,0,1-.39.46,4.29,4.29,0,0,1-.45.4l-.22.17a4.3,4.3,0,0,1-.65.39l-.37.16a4.54,4.54,0,0,1-.69.21l-.26.05-.35,0a3,3,0,0,1-.6,0,.89.89,0,0,1-.23,0,4.76,4.76,0,0,1-4.16-5.18,4.61,4.61,0,0,1,5.14-4.15,4.52,4.52,0,0,1,.53.09,3.44,3.44,0,0,1,.46.12l.43.16a3.56,3.56,0,0,1,.55.28l.2.13a5.58,5.58,0,0,1,.54.42l.3.3a4.91,4.91,0,0,1,.39.51q.16.25.3.51c.07.14.13.29.19.44s.09.26.12.39a2.88,2.88,0,0,1,.07.28c0,.11,0,.21,0,.31a5.06,5.06,0,0,1,0,.68A2.17,2.17,0,0,1,95.85,61.48Zm25.09,8.73a14,14,0,0,0-2.15-4.42A65.66,65.66,0,0,0,111.53,58a30.81,30.81,0,0,0-25.35-7.79c-8.31,1.11-15.59,4.71-22.28,9.62a2.77,2.77,0,0,0-.31.36c5.71-3.05,11.44-5.85,18-7.46-5.1,7-3,13.89.73,17.53a12.76,12.76,0,0,0,16,1.5c5.47-3.65,6.89-9.71,4-17.06.1,0,.21-.06.29,0a26.62,26.62,0,0,1,11.19,10.83,4.24,4.24,0,0,1-1.18,5.44,32.6,32.6,0,0,1-27.34,6.54,51.08,51.08,0,0,1-19.21-8.61c-.32-.22-.66-.42-1-.62a.55.55,0,0,0,.16.54Q85.73,85.56,110,75.17A11.23,11.23,0,0,0,113.57,73c1-1,1.5-.94,2.32.11,1.35,1.71,2.77,1.86,4.28.6A3,3,0,0,0,120.94,70.21Zm-40.3-5c-.2-2.07-.38-4-.58-6.11l5.09.92c.11,1.24.2,2.22.3,3.36Zm15.21-3.78a2,2,0,0,1,0,.25c0,.15,0,.3-.06.44a5.82,5.82,0,0,1-.25.84l-.14.3a1.28,1.28,0,0,1-.11.2.75.75,0,0,1-.07.12l-.14.22a1.07,1.07,0,0,1-.15.22,5.6,5.6,0,0,1-.39.46,4.29,4.29,0,0,1-.45.4l-.22.17a4.3,4.3,0,0,1-.65.39l-.37.16a4.54,4.54,0,0,1-.69.21l-.26.05-.35,0a3,3,0,0,1-.6,0,.89.89,0,0,1-.23,0,4.76,4.76,0,0,1-4.16-5.18,4.61,4.61,0,0,1,5.14-4.15,4.52,4.52,0,0,1,.53.09,3.44,3.44,0,0,1,.46.12l.43.16a3.56,3.56,0,0,1,.55.28l.2.13a5.58,5.58,0,0,1,.54.42l.3.3a4.91,4.91,0,0,1,.39.51q.16.25.3.51c.07.14.13.29.19.44s.09.26.12.39a2.88,2.88,0,0,1,.07.28c0,.11,0,.21,0,.31a5.06,5.06,0,0,1,0,.68A2.17,2.17,0,0,1,95.85,61.48Zm29.37.84a62.3,62.3,0,0,0-13.56-10.67c-8.95-5.09-18.45-6.91-28.56-4.47a48.18,48.18,0,0,0-21.46,12,8.64,8.64,0,0,0-.7.78,139.07,139.07,0,0,1,12.81-7.68A35.62,35.62,0,0,1,97.3,48.91C107.22,51,115,56.48,121.16,64.37A14.14,14.14,0,0,0,122.67,66c1.59,1.45,2.36,1.39,3.69-.22,0-.5.09-1,.13-1.5A10.78,10.78,0,0,0,125.22,62.32Zm127.65,6.11A51.08,51.08,0,0,1,233.66,77a32.6,32.6,0,0,1-27.34-6.54,4.25,4.25,0,0,1-1.18-5.44,26.65,26.65,0,0,1,11.2-10.83c.07,0,.18,0,.28,0-2.9,7.35-1.48,13.42,4,17.06a12.78,12.78,0,0,0,16.06-1.5c3.69-3.64,5.82-10.53.72-17.52,6.58,1.6,12.31,4.4,18,7.45a2.17,2.17,0,0,0-.31-.36c-6.69-4.9-14-8.51-22.28-9.62a30.81,30.81,0,0,0-25.35,7.79,67.25,67.25,0,0,0-7.26,7.82,14,14,0,0,0-2.15,4.42,3,3,0,0,0,.77,3.45c1.51,1.26,2.93,1.11,4.28-.6.82-1,1.31-1.14,2.32-.11A11.23,11.23,0,0,0,209,74.75q24.3,10.37,44.74-6.4a.55.55,0,0,0,.16-.54C253.53,68,253.19,68.21,252.87,68.43ZM227.32,56.19a4.61,4.61,0,0,1,5.14,4.15,4.67,4.67,0,1,1-9.29,1A4.59,4.59,0,0,1,227.32,56.19Zm-5.39,3.65c.11,1.23.2,2.21.3,3.35L217.42,65c-.2-2.07-.38-4-.58-6.11Zm35.44-1.11a48.25,48.25,0,0,0-21.47-12c-10.1-2.45-19.61-.63-28.56,4.47a61.93,61.93,0,0,0-13.56,10.67,11.23,11.23,0,0,0-1.27,2c0,.5.09,1,.13,1.5,1.33,1.61,2.1,1.67,3.69.23A15.08,15.08,0,0,0,197.84,64c6.19-7.88,13.94-13.39,23.86-15.46a35.62,35.62,0,0,1,23.55,3.34,137.73,137.73,0,0,1,12.81,7.68C257.83,59.25,257.62,59,257.37,58.73Zm0,0a48.25,48.25,0,0,0-21.47-12c-10.1-2.45-19.61-.63-28.56,4.47a61.93,61.93,0,0,0-13.56,10.67,11.23,11.23,0,0,0-1.27,2c0,.5.09,1,.13,1.5,1.33,1.61,2.1,1.67,3.69.23A15.08,15.08,0,0,0,197.84,64c6.19-7.88,13.94-13.39,23.86-15.46a35.62,35.62,0,0,1,23.55,3.34,137.73,137.73,0,0,1,12.81,7.68C257.83,59.25,257.62,59,257.37,58.73Zm-4.5,9.7A51.08,51.08,0,0,1,233.66,77a32.6,32.6,0,0,1-27.34-6.54,4.25,4.25,0,0,1-1.18-5.44,26.65,26.65,0,0,1,11.2-10.83c.07,0,.18,0,.28,0-2.9,7.35-1.48,13.42,4,17.06a12.78,12.78,0,0,0,16.06-1.5c3.69-3.64,5.82-10.53.72-17.52,6.58,1.6,12.31,4.4,18,7.45a2.17,2.17,0,0,0-.31-.36c-6.69-4.9-14-8.51-22.28-9.62a30.81,30.81,0,0,0-25.35,7.79,67.25,67.25,0,0,0-7.26,7.82,14,14,0,0,0-2.15,4.42,3,3,0,0,0,.77,3.45c1.51,1.26,2.93,1.11,4.28-.6.82-1,1.31-1.14,2.32-.11A11.23,11.23,0,0,0,209,74.75q24.3,10.37,44.74-6.4a.55.55,0,0,0,.16-.54C253.53,68,253.19,68.21,252.87,68.43ZM227.32,56.19a4.61,4.61,0,0,1,5.14,4.15,4.67,4.67,0,1,1-9.29,1A4.59,4.59,0,0,1,227.32,56.19Zm-5.39,3.65c.11,1.23.2,2.21.3,3.35L217.42,65c-.2-2.07-.38-4-.58-6.11Zm-96.71,2.48a62.3,62.3,0,0,0-13.56-10.67c-8.95-5.09-18.45-6.91-28.56-4.47a48.18,48.18,0,0,0-21.46,12,8.64,8.64,0,0,0-.7.78,139.07,139.07,0,0,1,12.81-7.68A35.62,35.62,0,0,1,97.3,48.91C107.22,51,115,56.48,121.16,64.37A14.14,14.14,0,0,0,122.67,66c1.59,1.45,2.36,1.39,3.69-.22,0-.5.09-1,.13-1.5A10.78,10.78,0,0,0,125.22,62.32Zm-4.28,7.89a14,14,0,0,0-2.15-4.42A65.66,65.66,0,0,0,111.53,58a30.81,30.81,0,0,0-25.35-7.79c-8.31,1.11-15.59,4.71-22.28,9.62a2.77,2.77,0,0,0-.31.36c5.71-3.05,11.44-5.85,18-7.46-5.1,7-3,13.89.73,17.53a12.76,12.76,0,0,0,16,1.5c5.47-3.65,6.89-9.71,4-17.06.1,0,.21-.06.29,0a26.62,26.62,0,0,1,11.19,10.83,4.24,4.24,0,0,1-1.18,5.44,32.6,32.6,0,0,1-27.34,6.54,51.08,51.08,0,0,1-19.21-8.61c-.32-.22-.66-.42-1-.62a.55.55,0,0,0,.16.54Q85.73,85.56,110,75.17A11.23,11.23,0,0,0,113.57,73c1-1,1.5-.94,2.32.11,1.35,1.71,2.77,1.86,4.28.6A3,3,0,0,0,120.94,70.21Zm-40.3-5c-.2-2.07-.38-4-.58-6.11l5.09.92c.11,1.24.2,2.22.3,3.36Zm15.21-3.78a2,2,0,0,1,0,.25c0,.15,0,.3-.06.44a5.82,5.82,0,0,1-.25.84l-.14.3a1.28,1.28,0,0,1-.11.2.75.75,0,0,1-.07.12l-.14.22a1.07,1.07,0,0,1-.15.22,5.6,5.6,0,0,1-.39.46,4.29,4.29,0,0,1-.45.4l-.22.17a4.3,4.3,0,0,1-.65.39l-.37.16a4.54,4.54,0,0,1-.69.21l-.26.05-.35,0a3,3,0,0,1-.6,0,.89.89,0,0,1-.23,0,4.76,4.76,0,0,1-4.16-5.18,4.61,4.61,0,0,1,5.14-4.15,4.52,4.52,0,0,1,.53.09,3.44,3.44,0,0,1,.46.12l.43.16a3.56,3.56,0,0,1,.55.28l.2.13a5.58,5.58,0,0,1,.54.42l.3.3a4.91,4.91,0,0,1,.39.51q.16.25.3.51c.07.14.13.29.19.44s.09.26.12.39a2.88,2.88,0,0,1,.07.28c0,.11,0,.21,0,.31a5.06,5.06,0,0,1,0,.68A2.17,2.17,0,0,1,95.85,61.48Zm25.09,8.73a14,14,0,0,0-2.15-4.42A65.66,65.66,0,0,0,111.53,58a30.81,30.81,0,0,0-25.35-7.79c-8.31,1.11-15.59,4.71-22.28,9.62a2.77,2.77,0,0,0-.31.36c5.71-3.05,11.44-5.85,18-7.46-5.1,7-3,13.89.73,17.53a12.76,12.76,0,0,0,16,1.5c5.47-3.65,6.89-9.71,4-17.06.1,0,.21-.06.29,0a26.62,26.62,0,0,1,11.19,10.83,4.24,4.24,0,0,1-1.18,5.44,32.6,32.6,0,0,1-27.34,6.54,51.08,51.08,0,0,1-19.21-8.61c-.32-.22-.66-.42-1-.62a.55.55,0,0,0,.16.54Q85.73,85.56,110,75.17A11.23,11.23,0,0,0,113.57,73c1-1,1.5-.94,2.32.11,1.35,1.71,2.77,1.86,4.28.6A3,3,0,0,0,120.94,70.21Zm-40.3-5c-.2-2.07-.38-4-.58-6.11l5.09.92c.11,1.24.2,2.22.3,3.36Zm15.21-3.78a2,2,0,0,1,0,.25c0,.15,0,.3-.06.44a5.82,5.82,0,0,1-.25.84l-.14.3a1.28,1.28,0,0,1-.11.2.75.75,0,0,1-.07.12l-.14.22a1.07,1.07,0,0,1-.15.22,5.6,5.6,0,0,1-.39.46,4.29,4.29,0,0,1-.45.4l-.22.17a4.3,4.3,0,0,1-.65.39l-.37.16a4.54,4.54,0,0,1-.69.21l-.26.05-.35,0a3,3,0,0,1-.6,0,.89.89,0,0,1-.23,0,4.76,4.76,0,0,1-4.16-5.18,4.61,4.61,0,0,1,5.14-4.15,4.52,4.52,0,0,1,.53.09,3.44,3.44,0,0,1,.46.12l.43.16a3.56,3.56,0,0,1,.55.28l.2.13a5.58,5.58,0,0,1,.54.42l.3.3a4.91,4.91,0,0,1,.39.51q.16.25.3.51c.07.14.13.29.19.44s.09.26.12.39a2.88,2.88,0,0,1,.07.28c0,.11,0,.21,0,.31a5.06,5.06,0,0,1,0,.68A2.17,2.17,0,0,1,95.85,61.48Zm29.37.84a62.3,62.3,0,0,0-13.56-10.67c-8.95-5.09-18.45-6.91-28.56-4.47a48.18,48.18,0,0,0-21.46,12,8.64,8.64,0,0,0-.7.78,139.07,139.07,0,0,1,12.81-7.68A35.62,35.62,0,0,1,97.3,48.91C107.22,51,115,56.48,121.16,64.37A14.14,14.14,0,0,0,122.67,66c1.59,1.45,2.36,1.39,3.69-.22,0-.5.09-1,.13-1.5A10.78,10.78,0,0,0,125.22,62.32Zm127.65,6.11A51.08,51.08,0,0,1,233.66,77a32.6,32.6,0,0,1-27.34-6.54,4.25,4.25,0,0,1-1.18-5.44,26.65,26.65,0,0,1,11.2-10.83c.07,0,.18,0,.28,0-2.9,7.35-1.48,13.42,4,17.06a12.78,12.78,0,0,0,16.06-1.5c3.69-3.64,5.82-10.53.72-17.52,6.58,1.6,12.31,4.4,18,7.45a2.17,2.17,0,0,0-.31-.36c-6.69-4.9-14-8.51-22.28-9.62a30.81,30.81,0,0,0-25.35,7.79,67.25,67.25,0,0,0-7.26,7.82,14,14,0,0,0-2.15,4.42,3,3,0,0,0,.77,3.45c1.51,1.26,2.93,1.11,4.28-.6.82-1,1.31-1.14,2.32-.11A11.23,11.23,0,0,0,209,74.75q24.3,10.37,44.74-6.4a.55.55,0,0,0,.16-.54C253.53,68,253.19,68.21,252.87,68.43ZM227.32,56.19a4.61,4.61,0,0,1,5.14,4.15,4.67,4.67,0,1,1-9.29,1A4.59,4.59,0,0,1,227.32,56.19Zm-5.39,3.65c.11,1.23.2,2.21.3,3.35L217.42,65c-.2-2.07-.38-4-.58-6.11Zm35.44-1.11a48.25,48.25,0,0,0-21.47-12c-10.1-2.45-19.61-.63-28.56,4.47a61.93,61.93,0,0,0-13.56,10.67,11.23,11.23,0,0,0-1.27,2c0,.5.09,1,.13,1.5,1.33,1.61,2.1,1.67,3.69.23A15.08,15.08,0,0,0,197.84,64c6.19-7.88,13.94-13.39,23.86-15.46a35.62,35.62,0,0,1,23.55,3.34,137.73,137.73,0,0,1,12.81,7.68C257.83,59.25,257.62,59,257.37,58.73Zm0,0a48.25,48.25,0,0,0-21.47-12c-10.1-2.45-19.61-.63-28.56,4.47a61.93,61.93,0,0,0-13.56,10.67,11.23,11.23,0,0,0-1.27,2c0,.5.09,1,.13,1.5,1.33,1.61,2.1,1.67,3.69.23A15.08,15.08,0,0,0,197.84,64c6.19-7.88,13.94-13.39,23.86-15.46a35.62,35.62,0,0,1,23.55,3.34,137.73,137.73,0,0,1,12.81,7.68C257.83,59.25,257.62,59,257.37,58.73Zm-4.5,9.7A51.08,51.08,0,0,1,233.66,77a32.6,32.6,0,0,1-27.34-6.54,4.25,4.25,0,0,1-1.18-5.44,26.65,26.65,0,0,1,11.2-10.83c.07,0,.18,0,.28,0-2.9,7.35-1.48,13.42,4,17.06a12.78,12.78,0,0,0,16.06-1.5c3.69-3.64,5.82-10.53.72-17.52,6.58,1.6,12.31,4.4,18,7.45a2.17,2.17,0,0,0-.31-.36c-6.69-4.9-14-8.51-22.28-9.62a30.81,30.81,0,0,0-25.35,7.79,67.25,67.25,0,0,0-7.26,7.82,14,14,0,0,0-2.15,4.42,3,3,0,0,0,.77,3.45c1.51,1.26,2.93,1.11,4.28-.6.82-1,1.31-1.14,2.32-.11A11.23,11.23,0,0,0,209,74.75q24.3,10.37,44.74-6.4a.55.55,0,0,0,.16-.54C253.53,68,253.19,68.21,252.87,68.43ZM227.32,56.19a4.61,4.61,0,0,1,5.14,4.15,4.67,4.67,0,1,1-9.29,1A4.59,4.59,0,0,1,227.32,56.19Zm-5.39,3.65c.11,1.23.2,2.21.3,3.35L217.42,65c-.2-2.07-.38-4-.58-6.11Zm-96.71,2.48a62.3,62.3,0,0,0-13.56-10.67c-8.95-5.09-18.45-6.91-28.56-4.47a48.18,48.18,0,0,0-21.46,12,8.64,8.64,0,0,0-.7.78,139.07,139.07,0,0,1,12.81-7.68A35.62,35.62,0,0,1,97.3,48.91C107.22,51,115,56.48,121.16,64.37A14.14,14.14,0,0,0,122.67,66c1.59,1.45,2.36,1.39,3.69-.22,0-.5.09-1,.13-1.5A10.78,10.78,0,0,0,125.22,62.32Zm-4.28,7.89a14,14,0,0,0-2.15-4.42A65.66,65.66,0,0,0,111.53,58a30.81,30.81,0,0,0-25.35-7.79c-8.31,1.11-15.59,4.71-22.28,9.62a2.77,2.77,0,0,0-.31.36c5.71-3.05,11.44-5.85,18-7.46-5.1,7-3,13.89.73,17.53a12.76,12.76,0,0,0,16,1.5c5.47-3.65,6.89-9.71,4-17.06.1,0,.21-.06.29,0a26.62,26.62,0,0,1,11.19,10.83,4.24,4.24,0,0,1-1.18,5.44,32.6,32.6,0,0,1-27.34,6.54,51.08,51.08,0,0,1-19.21-8.61c-.32-.22-.66-.42-1-.62a.55.55,0,0,0,.16.54Q85.73,85.56,110,75.17A11.23,11.23,0,0,0,113.57,73c1-1,1.5-.94,2.32.11,1.35,1.71,2.77,1.86,4.28.6A3,3,0,0,0,120.94,70.21Zm-40.3-5c-.2-2.07-.38-4-.58-6.11l5.09.92c.11,1.24.2,2.22.3,3.36Zm15.21-3.78a2,2,0,0,1,0,.25c0,.15,0,.3-.06.44a5.82,5.82,0,0,1-.25.84l-.14.3a1.28,1.28,0,0,1-.11.2.75.75,0,0,1-.07.12l-.14.22a1.07,1.07,0,0,1-.15.22,5.6,5.6,0,0,1-.39.46,4.29,4.29,0,0,1-.45.4l-.22.17a4.3,4.3,0,0,1-.65.39l-.37.16a4.54,4.54,0,0,1-.69.21l-.26.05-.35,0a3,3,0,0,1-.6,0,.89.89,0,0,1-.23,0,4.76,4.76,0,0,1-4.16-5.18,4.61,4.61,0,0,1,5.14-4.15,4.52,4.52,0,0,1,.53.09,3.44,3.44,0,0,1,.46.12l.43.16a3.56,3.56,0,0,1,.55.28l.2.13a5.58,5.58,0,0,1,.54.42l.3.3a4.91,4.91,0,0,1,.39.51q.16.25.3.51c.07.14.13.29.19.44s.09.26.12.39a2.88,2.88,0,0,1,.07.28c0,.11,0,.21,0,.31a5.06,5.06,0,0,1,0,.68A2.17,2.17,0,0,1,95.85,61.48Zm25.09,8.73a14,14,0,0,0-2.15-4.42A65.66,65.66,0,0,0,111.53,58a30.81,30.81,0,0,0-25.35-7.79c-8.31,1.11-15.59,4.71-22.28,9.62a2.77,2.77,0,0,0-.31.36c5.71-3.05,11.44-5.85,18-7.46-5.1,7-3,13.89.73,17.53a12.76,12.76,0,0,0,16,1.5c5.47-3.65,6.89-9.71,4-17.06.1,0,.21-.06.29,0a26.62,26.62,0,0,1,11.19,10.83,4.24,4.24,0,0,1-1.18,5.44,32.6,32.6,0,0,1-27.34,6.54,51.08,51.08,0,0,1-19.21-8.61c-.32-.22-.66-.42-1-.62a.55.55,0,0,0,.16.54Q85.73,85.56,110,75.17A11.23,11.23,0,0,0,113.57,73c1-1,1.5-.94,2.32.11,1.35,1.71,2.77,1.86,4.28.6A3,3,0,0,0,120.94,70.21Zm-40.3-5c-.2-2.07-.38-4-.58-6.11l5.09.92c.11,1.24.2,2.22.3,3.36Zm15.21-3.78a2,2,0,0,1,0,.25c0,.15,0,.3-.06.44a5.82,5.82,0,0,1-.25.84l-.14.3a1.28,1.28,0,0,1-.11.2.75.75,0,0,1-.07.12l-.14.22a1.07,1.07,0,0,1-.15.22,5.6,5.6,0,0,1-.39.46,4.29,4.29,0,0,1-.45.4l-.22.17a4.3,4.3,0,0,1-.65.39l-.37.16a4.54,4.54,0,0,1-.69.21l-.26.05-.35,0a3,3,0,0,1-.6,0,.89.89,0,0,1-.23,0,4.76,4.76,0,0,1-4.16-5.18,4.61,4.61,0,0,1,5.14-4.15,4.52,4.52,0,0,1,.53.09,3.44,3.44,0,0,1,.46.12l.43.16a3.56,3.56,0,0,1,.55.28l.2.13a5.58,5.58,0,0,1,.54.42l.3.3a4.91,4.91,0,0,1,.39.51q.16.25.3.51c.07.14.13.29.19.44s.09.26.12.39a2.88,2.88,0,0,1,.07.28c0,.11,0,.21,0,.31a5.06,5.06,0,0,1,0,.68A2.17,2.17,0,0,1,95.85,61.48Zm29.37.84a62.3,62.3,0,0,0-13.56-10.67c-8.95-5.09-18.45-6.91-28.56-4.47a48.18,48.18,0,0,0-21.46,12,8.64,8.64,0,0,0-.7.78,139.07,139.07,0,0,1,12.81-7.68A35.62,35.62,0,0,1,97.3,48.91C107.22,51,115,56.48,121.16,64.37A14.14,14.14,0,0,0,122.67,66c1.59,1.45,2.36,1.39,3.69-.22,0-.5.09-1,.13-1.5A10.78,10.78,0,0,0,125.22,62.32Zm127.65,6.11A51.08,51.08,0,0,1,233.66,77a32.6,32.6,0,0,1-27.34-6.54,4.25,4.25,0,0,1-1.18-5.44,26.65,26.65,0,0,1,11.2-10.83c.07,0,.18,0,.28,0-2.9,7.35-1.48,13.42,4,17.06a12.78,12.78,0,0,0,16.06-1.5c3.69-3.64,5.82-10.53.72-17.52,6.58,1.6,12.31,4.4,18,7.45a2.17,2.17,0,0,0-.31-.36c-6.69-4.9-14-8.51-22.28-9.62a30.81,30.81,0,0,0-25.35,7.79,67.25,67.25,0,0,0-7.26,7.82,14,14,0,0,0-2.15,4.42,3,3,0,0,0,.77,3.45c1.51,1.26,2.93,1.11,4.28-.6.82-1,1.31-1.14,2.32-.11A11.23,11.23,0,0,0,209,74.75q24.3,10.37,44.74-6.4a.55.55,0,0,0,.16-.54C253.53,68,253.19,68.21,252.87,68.43ZM227.32,56.19a4.61,4.61,0,0,1,5.14,4.15,4.67,4.67,0,1,1-9.29,1A4.59,4.59,0,0,1,227.32,56.19Zm-5.39,3.65c.11,1.23.2,2.21.3,3.35L217.42,65c-.2-2.07-.38-4-.58-6.11Zm35.44-1.11a48.25,48.25,0,0,0-21.47-12c-10.1-2.45-19.61-.63-28.56,4.47a61.93,61.93,0,0,0-13.56,10.67,11.23,11.23,0,0,0-1.27,2c0,.5.09,1,.13,1.5,1.33,1.61,2.1,1.67,3.69.23A15.08,15.08,0,0,0,197.84,64c6.19-7.88,13.94-13.39,23.86-15.46a35.62,35.62,0,0,1,23.55,3.34,137.73,137.73,0,0,1,12.81,7.68C257.83,59.25,257.62,59,257.37,58.73Zm0,0a48.25,48.25,0,0,0-21.47-12c-10.1-2.45-19.61-.63-28.56,4.47a61.93,61.93,0,0,0-13.56,10.67,11.23,11.23,0,0,0-1.27,2c0,.5.09,1,.13,1.5,1.33,1.61,2.1,1.67,3.69.23A15.08,15.08,0,0,0,197.84,64c6.19-7.88,13.94-13.39,23.86-15.46a35.62,35.62,0,0,1,23.55,3.34,137.73,137.73,0,0,1,12.81,7.68C257.83,59.25,257.62,59,257.37,58.73Zm-4.5,9.7A51.08,51.08,0,0,1,233.66,77a32.6,32.6,0,0,1-27.34-6.54,4.25,4.25,0,0,1-1.18-5.44,26.65,26.65,0,0,1,11.2-10.83c.07,0,.18,0,.28,0-2.9,7.35-1.48,13.42,4,17.06a12.78,12.78,0,0,0,16.06-1.5c3.69-3.64,5.82-10.53.72-17.52,6.58,1.6,12.31,4.4,18,7.45a2.17,2.17,0,0,0-.31-.36c-6.69-4.9-14-8.51-22.28-9.62a30.81,30.81,0,0,0-25.35,7.79,67.25,67.25,0,0,0-7.26,7.82,14,14,0,0,0-2.15,4.42,3,3,0,0,0,.77,3.45c1.51,1.26,2.93,1.11,4.28-.6.82-1,1.31-1.14,2.32-.11A11.23,11.23,0,0,0,209,74.75q24.3,10.37,44.74-6.4a.55.55,0,0,0,.16-.54C253.53,68,253.19,68.21,252.87,68.43ZM227.32,56.19a4.61,4.61,0,0,1,5.14,4.15,4.67,4.67,0,1,1-9.29,1A4.59,4.59,0,0,1,227.32,56.19Zm-5.39,3.65c.11,1.23.2,2.21.3,3.35L217.42,65c-.2-2.07-.38-4-.58-6.11Zm-96.71,2.48a62.3,62.3,0,0,0-13.56-10.67c-8.95-5.09-18.45-6.91-28.56-4.47a48.18,48.18,0,0,0-21.46,12,8.64,8.64,0,0,0-.7.78,139.07,139.07,0,0,1,12.81-7.68A35.62,35.62,0,0,1,97.3,48.91C107.22,51,115,56.48,121.16,64.37A14.14,14.14,0,0,0,122.67,66c1.59,1.45,2.36,1.39,3.69-.22,0-.5.09-1,.13-1.5A10.78,10.78,0,0,0,125.22,62.32Zm-4.28,7.89a14,14,0,0,0-2.15-4.42A65.66,65.66,0,0,0,111.53,58a30.81,30.81,0,0,0-25.35-7.79c-8.31,1.11-15.59,4.71-22.28,9.62a2.77,2.77,0,0,0-.31.36c5.71-3.05,11.44-5.85,18-7.46-5.1,7-3,13.89.73,17.53a12.76,12.76,0,0,0,16,1.5c5.47-3.65,6.89-9.71,4-17.06.1,0,.21-.06.29,0a26.62,26.62,0,0,1,11.19,10.83,4.24,4.24,0,0,1-1.18,5.44,32.6,32.6,0,0,1-27.34,6.54,51.08,51.08,0,0,1-19.21-8.61c-.32-.22-.66-.42-1-.62a.55.55,0,0,0,.16.54Q85.73,85.56,110,75.17A11.23,11.23,0,0,0,113.57,73c1-1,1.5-.94,2.32.11,1.35,1.71,2.77,1.86,4.28.6A3,3,0,0,0,120.94,70.21Zm-40.3-5c-.2-2.07-.38-4-.58-6.11l5.09.92c.11,1.24.2,2.22.3,3.36Zm15.21-3.78a2,2,0,0,1,0,.25c0,.15,0,.3-.06.44a5.82,5.82,0,0,1-.25.84l-.14.3a1.28,1.28,0,0,1-.11.2.75.75,0,0,1-.07.12l-.14.22a1.07,1.07,0,0,1-.15.22,5.6,5.6,0,0,1-.39.46,4.29,4.29,0,0,1-.45.4l-.22.17a4.3,4.3,0,0,1-.65.39l-.37.16a4.54,4.54,0,0,1-.69.21l-.26.05-.35,0a3,3,0,0,1-.6,0,.89.89,0,0,1-.23,0,4.76,4.76,0,0,1-4.16-5.18,4.61,4.61,0,0,1,5.14-4.15,4.52,4.52,0,0,1,.53.09,3.44,3.44,0,0,1,.46.12l.43.16a3.56,3.56,0,0,1,.55.28l.2.13a5.58,5.58,0,0,1,.54.42l.3.3a4.91,4.91,0,0,1,.39.51q.16.25.3.51c.07.14.13.29.19.44s.09.26.12.39a2.88,2.88,0,0,1,.07.28c0,.11,0,.21,0,.31a5.06,5.06,0,0,1,0,.68A2.17,2.17,0,0,1,95.85,61.48Zm25.09,8.73a14,14,0,0,0-2.15-4.42A65.66,65.66,0,0,0,111.53,58a30.81,30.81,0,0,0-25.35-7.79c-8.31,1.11-15.59,4.71-22.28,9.62a2.77,2.77,0,0,0-.31.36c5.71-3.05,11.44-5.85,18-7.46-5.1,7-3,13.89.73,17.53a12.76,12.76,0,0,0,16,1.5c5.47-3.65,6.89-9.71,4-17.06.1,0,.21-.06.29,0a26.62,26.62,0,0,1,11.19,10.83,4.24,4.24,0,0,1-1.18,5.44,32.6,32.6,0,0,1-27.34,6.54,51.08,51.08,0,0,1-19.21-8.61c-.32-.22-.66-.42-1-.62a.55.55,0,0,0,.16.54Q85.73,85.56,110,75.17A11.23,11.23,0,0,0,113.57,73c1-1,1.5-.94,2.32.11,1.35,1.71,2.77,1.86,4.28.6A3,3,0,0,0,120.94,70.21Zm-40.3-5c-.2-2.07-.38-4-.58-6.11l5.09.92c.11,1.24.2,2.22.3,3.36Zm15.21-3.78a2,2,0,0,1,0,.25c0,.15,0,.3-.06.44a5.82,5.82,0,0,1-.25.84l-.14.3a1.28,1.28,0,0,1-.11.2.75.75,0,0,1-.07.12l-.14.22a1.07,1.07,0,0,1-.15.22,5.6,5.6,0,0,1-.39.46,4.29,4.29,0,0,1-.45.4l-.22.17a4.3,4.3,0,0,1-.65.39l-.37.16a4.54,4.54,0,0,1-.69.21l-.26.05-.35,0a3,3,0,0,1-.6,0,.89.89,0,0,1-.23,0,4.76,4.76,0,0,1-4.16-5.18,4.61,4.61,0,0,1,5.14-4.15,4.52,4.52,0,0,1,.53.09,3.44,3.44,0,0,1,.46.12l.43.16a3.56,3.56,0,0,1,.55.28l.2.13a5.58,5.58,0,0,1,.54.42l.3.3a4.91,4.91,0,0,1,.39.51q.16.25.3.51c.07.14.13.29.19.44s.09.26.12.39a2.88,2.88,0,0,1,.07.28c0,.11,0,.21,0,.31a5.06,5.06,0,0,1,0,.68A2.17,2.17,0,0,1,95.85,61.48Zm29.37.84a62.3,62.3,0,0,0-13.56-10.67c-8.95-5.09-18.45-6.91-28.56-4.47a48.18,48.18,0,0,0-21.46,12,8.64,8.64,0,0,0-.7.78,139.07,139.07,0,0,1,12.81-7.68A35.62,35.62,0,0,1,97.3,48.91C107.22,51,115,56.48,121.16,64.37A14.14,14.14,0,0,0,122.67,66c1.59,1.45,2.36,1.39,3.69-.22,0-.5.09-1,.13-1.5A10.78,10.78,0,0,0,125.22,62.32Zm127.65,6.11A51.08,51.08,0,0,1,233.66,77a32.6,32.6,0,0,1-27.34-6.54,4.25,4.25,0,0,1-1.18-5.44,26.65,26.65,0,0,1,11.2-10.83c.07,0,.18,0,.28,0-2.9,7.35-1.48,13.42,4,17.06a12.78,12.78,0,0,0,16.06-1.5c3.69-3.64,5.82-10.53.72-17.52,6.58,1.6,12.31,4.4,18,7.45a2.17,2.17,0,0,0-.31-.36c-6.69-4.9-14-8.51-22.28-9.62a30.81,30.81,0,0,0-25.35,7.79,67.25,67.25,0,0,0-7.26,7.82,14,14,0,0,0-2.15,4.42,3,3,0,0,0,.77,3.45c1.51,1.26,2.93,1.11,4.28-.6.82-1,1.31-1.14,2.32-.11A11.23,11.23,0,0,0,209,74.75q24.3,10.37,44.74-6.4a.55.55,0,0,0,.16-.54C253.53,68,253.19,68.21,252.87,68.43ZM227.32,56.19a4.61,4.61,0,0,1,5.14,4.15,4.67,4.67,0,1,1-9.29,1A4.59,4.59,0,0,1,227.32,56.19Zm-5.39,3.65c.11,1.23.2,2.21.3,3.35L217.42,65c-.2-2.07-.38-4-.58-6.11Zm35.44-1.11a48.25,48.25,0,0,0-21.47-12c-10.1-2.45-19.61-.63-28.56,4.47a61.93,61.93,0,0,0-13.56,10.67,11.23,11.23,0,0,0-1.27,2c0,.5.09,1,.13,1.5,1.33,1.61,2.1,1.67,3.69.23A15.08,15.08,0,0,0,197.84,64c6.19-7.88,13.94-13.39,23.86-15.46a35.62,35.62,0,0,1,23.55,3.34,137.73,137.73,0,0,1,12.81,7.68C257.83,59.25,257.62,59,257.37,58.73Zm0,0a48.25,48.25,0,0,0-21.47-12c-10.1-2.45-19.61-.63-28.56,4.47a61.93,61.93,0,0,0-13.56,10.67,11.23,11.23,0,0,0-1.27,2c0,.5.09,1,.13,1.5,1.33,1.61,2.1,1.67,3.69.23A15.08,15.08,0,0,0,197.84,64c6.19-7.88,13.94-13.39,23.86-15.46a35.62,35.62,0,0,1,23.55,3.34,137.73,137.73,0,0,1,12.81,7.68C257.83,59.25,257.62,59,257.37,58.73Zm-4.5,9.7A51.08,51.08,0,0,1,233.66,77a32.6,32.6,0,0,1-27.34-6.54,4.25,4.25,0,0,1-1.18-5.44,26.65,26.65,0,0,1,11.2-10.83c.07,0,.18,0,.28,0-2.9,7.35-1.48,13.42,4,17.06a12.78,12.78,0,0,0,16.06-1.5c3.69-3.64,5.82-10.53.72-17.52,6.58,1.6,12.31,4.4,18,7.45a2.17,2.17,0,0,0-.31-.36c-6.69-4.9-14-8.51-22.28-9.62a30.81,30.81,0,0,0-25.35,7.79,67.25,67.25,0,0,0-7.26,7.82,14,14,0,0,0-2.15,4.42,3,3,0,0,0,.77,3.45c1.51,1.26,2.93,1.11,4.28-.6.82-1,1.31-1.14,2.32-.11A11.23,11.23,0,0,0,209,74.75q24.3,10.37,44.74-6.4a.55.55,0,0,0,.16-.54C253.53,68,253.19,68.21,252.87,68.43ZM227.32,56.19a4.61,4.61,0,0,1,5.14,4.15,4.67,4.67,0,1,1-9.29,1A4.59,4.59,0,0,1,227.32,56.19Zm-5.39,3.65c.11,1.23.2,2.21.3,3.35L217.42,65c-.2-2.07-.38-4-.58-6.11Zm-96.71,2.48a62.3,62.3,0,0,0-13.56-10.67c-8.95-5.09-18.45-6.91-28.56-4.47a48.18,48.18,0,0,0-21.46,12,8.64,8.64,0,0,0-.7.78,139.07,139.07,0,0,1,12.81-7.68A35.62,35.62,0,0,1,97.3,48.91C107.22,51,115,56.48,121.16,64.37A14.14,14.14,0,0,0,122.67,66c1.59,1.45,2.36,1.39,3.69-.22,0-.5.09-1,.13-1.5A10.78,10.78,0,0,0,125.22,62.32Zm-4.28,7.89a14,14,0,0,0-2.15-4.42A65.66,65.66,0,0,0,111.53,58a30.81,30.81,0,0,0-25.35-7.79c-8.31,1.11-15.59,4.71-22.28,9.62a2.77,2.77,0,0,0-.31.36c5.71-3.05,11.44-5.85,18-7.46-5.1,7-3,13.89.73,17.53a12.76,12.76,0,0,0,16,1.5c5.47-3.65,6.89-9.71,4-17.06.1,0,.21-.06.29,0a26.62,26.62,0,0,1,11.19,10.83,4.24,4.24,0,0,1-1.18,5.44,32.6,32.6,0,0,1-27.34,6.54,51.08,51.08,0,0,1-19.21-8.61c-.32-.22-.66-.42-1-.62a.55.55,0,0,0,.16.54Q85.73,85.56,110,75.17A11.23,11.23,0,0,0,113.57,73c1-1,1.5-.94,2.32.11,1.35,1.71,2.77,1.86,4.28.6A3,3,0,0,0,120.94,70.21Zm-40.3-5c-.2-2.07-.38-4-.58-6.11l5.09.92c.11,1.24.2,2.22.3,3.36Zm15.21-3.78a2,2,0,0,1,0,.25c0,.15,0,.3-.06.44a5.82,5.82,0,0,1-.25.84l-.14.3a1.28,1.28,0,0,1-.11.2.75.75,0,0,1-.07.12l-.14.22a1.07,1.07,0,0,1-.15.22,5.6,5.6,0,0,1-.39.46,4.29,4.29,0,0,1-.45.4l-.22.17a4.3,4.3,0,0,1-.65.39l-.37.16a4.54,4.54,0,0,1-.69.21l-.26.05-.35,0a3,3,0,0,1-.6,0,.89.89,0,0,1-.23,0,4.76,4.76,0,0,1-4.16-5.18,4.61,4.61,0,0,1,5.14-4.15,4.52,4.52,0,0,1,.53.09,3.44,3.44,0,0,1,.46.12l.43.16a3.56,3.56,0,0,1,.55.28l.2.13a5.58,5.58,0,0,1,.54.42l.3.3a4.91,4.91,0,0,1,.39.51q.16.25.3.51c.07.14.13.29.19.44s.09.26.12.39a2.88,2.88,0,0,1,.07.28c0,.11,0,.21,0,.31a5.06,5.06,0,0,1,0,.68A2.17,2.17,0,0,1,95.85,61.48Zm25.09,8.73a14,14,0,0,0-2.15-4.42A65.66,65.66,0,0,0,111.53,58a30.81,30.81,0,0,0-25.35-7.79c-8.31,1.11-15.59,4.71-22.28,9.62a2.77,2.77,0,0,0-.31.36c5.71-3.05,11.44-5.85,18-7.46-5.1,7-3,13.89.73,17.53a12.76,12.76,0,0,0,16,1.5c5.47-3.65,6.89-9.71,4-17.06.1,0,.21-.06.29,0a26.62,26.62,0,0,1,11.19,10.83,4.24,4.24,0,0,1-1.18,5.44,32.6,32.6,0,0,1-27.34,6.54,51.08,51.08,0,0,1-19.21-8.61c-.32-.22-.66-.42-1-.62a.55.55,0,0,0,.16.54Q85.73,85.56,110,75.17A11.23,11.23,0,0,0,113.57,73c1-1,1.5-.94,2.32.11,1.35,1.71,2.77,1.86,4.28.6A3,3,0,0,0,120.94,70.21Zm-40.3-5c-.2-2.07-.38-4-.58-6.11l5.09.92c.11,1.24.2,2.22.3,3.36Zm15.21-3.78a2,2,0,0,1,0,.25c0,.15,0,.3-.06.44a5.82,5.82,0,0,1-.25.84l-.14.3a1.28,1.28,0,0,1-.11.2.75.75,0,0,1-.07.12l-.14.22a1.07,1.07,0,0,1-.15.22,5.6,5.6,0,0,1-.39.46,4.29,4.29,0,0,1-.45.4l-.22.17a4.3,4.3,0,0,1-.65.39l-.37.16a4.54,4.54,0,0,1-.69.21l-.26.05-.35,0a3,3,0,0,1-.6,0,.89.89,0,0,1-.23,0,4.76,4.76,0,0,1-4.16-5.18,4.61,4.61,0,0,1,5.14-4.15,4.52,4.52,0,0,1,.53.09,3.44,3.44,0,0,1,.46.12l.43.16a3.56,3.56,0,0,1,.55.28l.2.13a5.58,5.58,0,0,1,.54.42l.3.3a4.91,4.91,0,0,1,.39.51q.16.25.3.51c.07.14.13.29.19.44s.09.26.12.39a2.88,2.88,0,0,1,.07.28c0,.11,0,.21,0,.31a5.06,5.06,0,0,1,0,.68A2.17,2.17,0,0,1,95.85,61.48Zm29.37.84a62.3,62.3,0,0,0-13.56-10.67c-8.95-5.09-18.45-6.91-28.56-4.47a48.18,48.18,0,0,0-21.46,12,8.64,8.64,0,0,0-.7.78,139.07,139.07,0,0,1,12.81-7.68A35.62,35.62,0,0,1,97.3,48.91C107.22,51,115,56.48,121.16,64.37A14.14,14.14,0,0,0,122.67,66c1.59,1.45,2.36,1.39,3.69-.22,0-.5.09-1,.13-1.5A10.78,10.78,0,0,0,125.22,62.32Zm0,0a62.3,62.3,0,0,0-13.56-10.67c-8.95-5.09-18.45-6.91-28.56-4.47a48.18,48.18,0,0,0-21.46,12,8.64,8.64,0,0,0-.7.78,139.07,139.07,0,0,1,12.81-7.68A35.62,35.62,0,0,1,97.3,48.91C107.22,51,115,56.48,121.16,64.37A14.14,14.14,0,0,0,122.67,66c1.59,1.45,2.36,1.39,3.69-.22,0-.5.09-1,.13-1.5A10.78,10.78,0,0,0,125.22,62.32Zm-4.28,7.89a14,14,0,0,0-2.15-4.42A65.66,65.66,0,0,0,111.53,58a30.81,30.81,0,0,0-25.35-7.79c-8.31,1.11-15.59,4.71-22.28,9.62a2.77,2.77,0,0,0-.31.36c5.71-3.05,11.44-5.85,18-7.46-5.1,7-3,13.89.73,17.53a12.76,12.76,0,0,0,16,1.5c5.47-3.65,6.89-9.71,4-17.06.1,0,.21-.06.29,0a26.62,26.62,0,0,1,11.19,10.83,4.24,4.24,0,0,1-1.18,5.44,32.6,32.6,0,0,1-27.34,6.54,51.08,51.08,0,0,1-19.21-8.61c-.32-.22-.66-.42-1-.62a.55.55,0,0,0,.16.54Q85.73,85.56,110,75.17A11.23,11.23,0,0,0,113.57,73c1-1,1.5-.94,2.32.11,1.35,1.71,2.77,1.86,4.28.6A3,3,0,0,0,120.94,70.21Zm-40.3-5c-.2-2.07-.38-4-.58-6.11l5.09.92c.11,1.24.2,2.22.3,3.36Zm15.21-3.78a2,2,0,0,1,0,.25c0,.15,0,.3-.06.44a5.82,5.82,0,0,1-.25.84l-.14.3a1.28,1.28,0,0,1-.11.2.75.75,0,0,1-.07.12l-.14.22a1.07,1.07,0,0,1-.15.22,5.6,5.6,0,0,1-.39.46,4.29,4.29,0,0,1-.45.4l-.22.17a4.3,4.3,0,0,1-.65.39l-.37.16a4.54,4.54,0,0,1-.69.21l-.26.05-.35,0a3,3,0,0,1-.6,0,.89.89,0,0,1-.23,0,4.76,4.76,0,0,1-4.16-5.18,4.61,4.61,0,0,1,5.14-4.15,4.52,4.52,0,0,1,.53.09,3.44,3.44,0,0,1,.46.12l.43.16a3.56,3.56,0,0,1,.55.28l.2.13a5.58,5.58,0,0,1,.54.42l.3.3a4.91,4.91,0,0,1,.39.51q.16.25.3.51c.07.14.13.29.19.44s.09.26.12.39a2.88,2.88,0,0,1,.07.28c0,.11,0,.21,0,.31a5.06,5.06,0,0,1,0,.68A2.17,2.17,0,0,1,95.85,61.48Zm25.09,8.73a14,14,0,0,0-2.15-4.42A65.66,65.66,0,0,0,111.53,58a30.81,30.81,0,0,0-25.35-7.79c-8.31,1.11-15.59,4.71-22.28,9.62a2.77,2.77,0,0,0-.31.36c5.71-3.05,11.44-5.85,18-7.46-5.1,7-3,13.89.73,17.53a12.76,12.76,0,0,0,16,1.5c5.47-3.65,6.89-9.71,4-17.06.1,0,.21-.06.29,0a26.62,26.62,0,0,1,11.19,10.83,4.24,4.24,0,0,1-1.18,5.44,32.6,32.6,0,0,1-27.34,6.54,51.08,51.08,0,0,1-19.21-8.61c-.32-.22-.66-.42-1-.62a.55.55,0,0,0,.16.54Q85.73,85.56,110,75.17A11.23,11.23,0,0,0,113.57,73c1-1,1.5-.94,2.32.11,1.35,1.71,2.77,1.86,4.28.6A3,3,0,0,0,120.94,70.21Zm-40.3-5c-.2-2.07-.38-4-.58-6.11l5.09.92c.11,1.24.2,2.22.3,3.36Zm15.21-3.78a2,2,0,0,1,0,.25c0,.15,0,.3-.06.44a5.82,5.82,0,0,1-.25.84l-.14.3a1.28,1.28,0,0,1-.11.2.75.75,0,0,1-.07.12l-.14.22a1.07,1.07,0,0,1-.15.22,5.6,5.6,0,0,1-.39.46,4.29,4.29,0,0,1-.45.4l-.22.17a4.3,4.3,0,0,1-.65.39l-.37.16a4.54,4.54,0,0,1-.69.21l-.26.05-.35,0a3,3,0,0,1-.6,0,.89.89,0,0,1-.23,0,4.76,4.76,0,0,1-4.16-5.18,4.61,4.61,0,0,1,5.14-4.15,4.52,4.52,0,0,1,.53.09,3.44,3.44,0,0,1,.46.12l.43.16a3.56,3.56,0,0,1,.55.28l.2.13a5.58,5.58,0,0,1,.54.42l.3.3a4.91,4.91,0,0,1,.39.51q.16.25.3.51c.07.14.13.29.19.44s.09.26.12.39a2.88,2.88,0,0,1,.07.28c0,.11,0,.21,0,.31a5.06,5.06,0,0,1,0,.68A2.17,2.17,0,0,1,95.85,61.48Zm29.37.84a62.3,62.3,0,0,0-13.56-10.67c-8.95-5.09-18.45-6.91-28.56-4.47a48.18,48.18,0,0,0-21.46,12,8.64,8.64,0,0,0-.7.78,139.07,139.07,0,0,1,12.81-7.68A35.62,35.62,0,0,1,97.3,48.91C107.22,51,115,56.48,121.16,64.37A14.14,14.14,0,0,0,122.67,66c1.59,1.45,2.36,1.39,3.69-.22,0-.5.09-1,.13-1.5A10.78,10.78,0,0,0,125.22,62.32Zm0,0a62.3,62.3,0,0,0-13.56-10.67c-8.95-5.09-18.45-6.91-28.56-4.47a48.18,48.18,0,0,0-21.46,12,8.64,8.64,0,0,0-.7.78,139.07,139.07,0,0,1,12.81-7.68A35.62,35.62,0,0,1,97.3,48.91C107.22,51,115,56.48,121.16,64.37A14.14,14.14,0,0,0,122.67,66c1.59,1.45,2.36,1.39,3.69-.22,0-.5.09-1,.13-1.5A10.78,10.78,0,0,0,125.22,62.32Zm-4.28,7.89a14,14,0,0,0-2.15-4.42A65.66,65.66,0,0,0,111.53,58a30.81,30.81,0,0,0-25.35-7.79c-8.31,1.11-15.59,4.71-22.28,9.62a2.77,2.77,0,0,0-.31.36c5.71-3.05,11.44-5.85,18-7.46-5.1,7-3,13.89.73,17.53a12.76,12.76,0,0,0,16,1.5c5.47-3.65,6.89-9.71,4-17.06.1,0,.21-.06.29,0a26.62,26.62,0,0,1,11.19,10.83,4.24,4.24,0,0,1-1.18,5.44,32.6,32.6,0,0,1-27.34,6.54,51.08,51.08,0,0,1-19.21-8.61c-.32-.22-.66-.42-1-.62a.55.55,0,0,0,.16.54Q85.73,85.56,110,75.17A11.23,11.23,0,0,0,113.57,73c1-1,1.5-.94,2.32.11,1.35,1.71,2.77,1.86,4.28.6A3,3,0,0,0,120.94,70.21Zm-40.3-5c-.2-2.07-.38-4-.58-6.11l5.09.92c.11,1.24.2,2.22.3,3.36Zm15.21-3.78a2,2,0,0,1,0,.25c0,.15,0,.3-.06.44a5.82,5.82,0,0,1-.25.84l-.14.3a1.28,1.28,0,0,1-.11.2.75.75,0,0,1-.07.12l-.14.22a1.07,1.07,0,0,1-.15.22,5.6,5.6,0,0,1-.39.46,4.29,4.29,0,0,1-.45.4l-.22.17a4.3,4.3,0,0,1-.65.39l-.37.16a4.54,4.54,0,0,1-.69.21l-.26.05-.35,0a3,3,0,0,1-.6,0,.89.89,0,0,1-.23,0,4.76,4.76,0,0,1-4.16-5.18,4.61,4.61,0,0,1,5.14-4.15,4.52,4.52,0,0,1,.53.09,3.44,3.44,0,0,1,.46.12l.43.16a3.56,3.56,0,0,1,.55.28l.2.13a5.58,5.58,0,0,1,.54.42l.3.3a4.91,4.91,0,0,1,.39.51q.16.25.3.51c.07.14.13.29.19.44s.09.26.12.39a2.88,2.88,0,0,1,.07.28c0,.11,0,.21,0,.31a5.06,5.06,0,0,1,0,.68A2.17,2.17,0,0,1,95.85,61.48Z"/><path class="cls-1" d="M252.87,68.43A51.08,51.08,0,0,1,233.66,77a32.6,32.6,0,0,1-27.34-6.54,4.25,4.25,0,0,1-1.18-5.44,26.65,26.65,0,0,1,11.2-10.83c.07,0,.18,0,.28,0-2.9,7.35-1.48,13.42,4,17.06a12.78,12.78,0,0,0,16.06-1.5c3.69-3.64,5.82-10.53.72-17.52,6.58,1.6,12.31,4.4,18,7.45a2.17,2.17,0,0,0-.31-.36c-6.69-4.9-14-8.51-22.28-9.62a30.81,30.81,0,0,0-25.35,7.79,67.25,67.25,0,0,0-7.26,7.82,14,14,0,0,0-2.15,4.42,3,3,0,0,0,.77,3.45c1.51,1.26,2.93,1.11,4.28-.6.82-1,1.31-1.14,2.32-.11A11.23,11.23,0,0,0,209,74.75q24.3,10.37,44.74-6.4a.55.55,0,0,0,.16-.54C253.53,68,253.19,68.21,252.87,68.43ZM227.32,56.19a4.61,4.61,0,0,1,5.14,4.15,4.67,4.67,0,1,1-9.29,1A4.59,4.59,0,0,1,227.32,56.19Zm-5.39,3.65c.11,1.23.2,2.21.3,3.35L217.42,65c-.2-2.07-.38-4-.58-6.11Z"/><path class="cls-1" d="M197.84,64a15.08,15.08,0,0,1-1.51,1.68c-1.59,1.44-2.36,1.38-3.69-.23,0-.5-.09-1-.13-1.5a11.23,11.23,0,0,1,1.27-2,61.93,61.93,0,0,1,13.56-10.67c8.95-5.1,18.46-6.92,28.56-4.47a48.25,48.25,0,0,1,21.47,12c.25.24.46.52.69.78a137.73,137.73,0,0,0-12.81-7.68,35.62,35.62,0,0,0-23.55-3.34C211.78,50.56,204,56.07,197.84,64Z"/><path class="cls-1" d="M120.94,70.21a14,14,0,0,0-2.15-4.42A65.66,65.66,0,0,0,111.53,58a30.81,30.81,0,0,0-25.35-7.79c-8.31,1.11-15.59,4.71-22.28,9.62a2.77,2.77,0,0,0-.31.36c5.71-3.05,11.44-5.85,18-7.46-5.1,7-3,13.89.73,17.53a12.76,12.76,0,0,0,16,1.5c5.47-3.65,6.89-9.71,4-17.06.1,0,.21-.06.29,0a26.62,26.62,0,0,1,11.19,10.83,4.24,4.24,0,0,1-1.18,5.44,32.6,32.6,0,0,1-27.34,6.54,51.08,51.08,0,0,1-19.21-8.61c-.32-.22-.66-.42-1-.62a.55.55,0,0,0,.16.54Q85.73,85.56,110,75.17A11.23,11.23,0,0,0,113.57,73c1-1,1.5-.94,2.32.11,1.35,1.71,2.77,1.86,4.28.6A3,3,0,0,0,120.94,70.21Zm-40.3-5c-.2-2.07-.38-4-.58-6.11l5.09.92c.11,1.24.2,2.22.3,3.36Zm15.21-3.78a2,2,0,0,1,0,.25c0,.15,0,.3-.06.44a5.82,5.82,0,0,1-.25.84l-.14.3a1.28,1.28,0,0,1-.11.2.75.75,0,0,1-.07.12l-.14.22a1.07,1.07,0,0,1-.15.22,5.6,5.6,0,0,1-.39.46,4.29,4.29,0,0,1-.45.4l-.22.17a4.3,4.3,0,0,1-.65.39l-.37.16a4.54,4.54,0,0,1-.69.21l-.26.05-.35,0a3,3,0,0,1-.6,0,.89.89,0,0,1-.23,0,4.76,4.76,0,0,1-4.16-5.18,4.61,4.61,0,0,1,5.14-4.15,4.52,4.52,0,0,1,.53.09,3.44,3.44,0,0,1,.46.12l.43.16a3.56,3.56,0,0,1,.55.28l.2.13a5.58,5.58,0,0,1,.54.42l.3.3a4.91,4.91,0,0,1,.39.51q.16.25.3.51c.07.14.13.29.19.44s.09.26.12.39a2.88,2.88,0,0,1,.07.28c0,.11,0,.21,0,.31a5.06,5.06,0,0,1,0,.68A2.17,2.17,0,0,1,95.85,61.48Z"/><path class="cls-1" d="M126.49,64.32c0,.5-.09,1-.13,1.5-1.33,1.61-2.1,1.67-3.69.22a14.14,14.14,0,0,1-1.51-1.67C115,56.48,107.22,51,97.3,48.91a35.62,35.62,0,0,0-23.55,3.34,139.07,139.07,0,0,0-12.81,7.68,8.64,8.64,0,0,1,.7-.78,48.18,48.18,0,0,1,21.46-12c10.11-2.44,19.61-.62,28.56,4.47a62.3,62.3,0,0,1,13.56,10.67A10.78,10.78,0,0,1,126.49,64.32Z"/><path class="cls-1" d="M126.49,64.32c0,.5-.09,1-.13,1.5-1.33,1.61-2.1,1.67-3.69.22a14.14,14.14,0,0,1-1.51-1.67C115,56.48,107.22,51,97.3,48.91a35.62,35.62,0,0,0-23.55,3.34,139.07,139.07,0,0,0-12.81,7.68,8.64,8.64,0,0,1,.7-.78,48.18,48.18,0,0,1,21.46-12c10.11-2.44,19.61-.62,28.56,4.47a62.3,62.3,0,0,1,13.56,10.67A10.78,10.78,0,0,1,126.49,64.32Z"/><path class="cls-1" d="M120.94,70.21a14,14,0,0,0-2.15-4.42A65.66,65.66,0,0,0,111.53,58a30.81,30.81,0,0,0-25.35-7.79c-8.31,1.11-15.59,4.71-22.28,9.62a2.77,2.77,0,0,0-.31.36c5.71-3.05,11.44-5.85,18-7.46-5.1,7-3,13.89.73,17.53a12.76,12.76,0,0,0,16,1.5c5.47-3.65,6.89-9.71,4-17.06.1,0,.21-.06.29,0a26.62,26.62,0,0,1,11.19,10.83,4.24,4.24,0,0,1-1.18,5.44,32.6,32.6,0,0,1-27.34,6.54,51.08,51.08,0,0,1-19.21-8.61c-.32-.22-.66-.42-1-.62a.55.55,0,0,0,.16.54Q85.73,85.56,110,75.17A11.23,11.23,0,0,0,113.57,73c1-1,1.5-.94,2.32.11,1.35,1.71,2.77,1.86,4.28.6A3,3,0,0,0,120.94,70.21Zm-40.3-5c-.2-2.07-.38-4-.58-6.11l5.09.92c.11,1.24.2,2.22.3,3.36Zm15.21-3.78a2.1,2.1,0,0,1,0,.25,3.11,3.11,0,0,1-.07.44,4.07,4.07,0,0,1-.25.84l-.14.3a1.28,1.28,0,0,1-.11.2.75.75,0,0,1-.07.12l-.14.22a1.07,1.07,0,0,1-.15.22,5.6,5.6,0,0,1-.39.46,4.29,4.29,0,0,1-.45.4l-.22.17a4.3,4.3,0,0,1-.65.39l-.37.16a4.54,4.54,0,0,1-.69.21l-.26.05-.35,0a3,3,0,0,1-.6,0,.89.89,0,0,1-.23,0,4.76,4.76,0,0,1-4.16-5.18,4.61,4.61,0,0,1,5.14-4.15,4.52,4.52,0,0,1,.53.09,3.44,3.44,0,0,1,.46.12l.43.16a3.56,3.56,0,0,1,.55.28l.2.13a5.58,5.58,0,0,1,.54.42l.3.3a4.91,4.91,0,0,1,.39.51q.16.25.3.51c.07.14.13.29.19.44s.09.26.12.39a2.88,2.88,0,0,1,.07.28c0,.11,0,.21,0,.31a5.06,5.06,0,0,1,0,.68A2.17,2.17,0,0,1,95.85,61.48Z"/><path class="cls-1" d="M258.06,59.51a137.73,137.73,0,0,0-12.81-7.68,35.62,35.62,0,0,0-23.55-3.34C211.78,50.56,204,56.07,197.84,64a15.08,15.08,0,0,1-1.51,1.68c-1.59,1.44-2.36,1.38-3.69-.23,0-.5-.09-1-.13-1.5a11.23,11.23,0,0,1,1.27-2,61.93,61.93,0,0,1,13.56-10.67c8.95-5.1,18.46-6.92,28.56-4.47a48.25,48.25,0,0,1,21.47,12C257.62,59,257.83,59.25,258.06,59.51Z"/><path class="cls-1" d="M252.87,68.43A51.08,51.08,0,0,1,233.66,77a32.6,32.6,0,0,1-27.34-6.54,4.25,4.25,0,0,1-1.18-5.44,26.65,26.65,0,0,1,11.2-10.83c.07,0,.18,0,.28,0-2.9,7.35-1.48,13.42,4,17.06a12.78,12.78,0,0,0,16.06-1.5c3.69-3.64,5.82-10.53.72-17.52,6.58,1.6,12.31,4.4,18,7.45a2.17,2.17,0,0,0-.31-.36c-6.69-4.9-14-8.51-22.28-9.62a30.81,30.81,0,0,0-25.35,7.79,67.25,67.25,0,0,0-7.26,7.82,14,14,0,0,0-2.15,4.42,3,3,0,0,0,.77,3.45c1.51,1.26,2.93,1.11,4.28-.6.82-1,1.31-1.14,2.32-.11A11.23,11.23,0,0,0,209,74.75q24.3,10.37,44.74-6.4a.55.55,0,0,0,.16-.54C253.53,68,253.19,68.21,252.87,68.43ZM227.32,56.19a4.61,4.61,0,0,1,5.14,4.15,4.67,4.67,0,1,1-9.29,1A4.59,4.59,0,0,1,227.32,56.19Zm-5.39,3.65c.11,1.23.2,2.21.3,3.35L217.42,65c-.2-2.07-.38-4-.58-6.11Z"/></g></g></svg>