<svg xmlns="http://www.w3.org/2000/svg" viewBox="0 0 1000.1 297.55">
    <g id="Layer_2" data-name="Layer 2">
        <g id="Capa_1" data-name="Capa 1">
            <path class="fill" d="M226.45,197.48a128.32,128.32,0,0,1-21.88,21.43,130.57,130.57,0,0,1-24.68,14.93,122.82,122.82,0,0,1-26.31,8.72,130.81,130.81,0,0,1-26.75,2.81,128.83,128.83,0,0,1-49.37-9.46,126.09,126.09,0,0,1-40.21-26,124,124,0,0,1-27.2-39A117.31,117.31,0,0,1,0,122.39,116.35,116.35,0,0,1,9.9,74.65,121.43,121.43,0,0,1,37.1,35.77,130.15,130.15,0,0,1,77.45,9.61,127.11,127.11,0,0,1,126.82,0q30.45,0,55.43,12.42a131.2,131.2,0,0,1,42.42,33.11l-31,31.63q-13.28-18-29.81-25.87T127,43.46a80.61,80.61,0,0,0-31.58,6.21,82.4,82.4,0,0,0-25.83,17A80,80,0,0,0,52.16,91.79a77.69,77.69,0,0,0,0,61.49,81.34,81.34,0,0,0,43.22,42.42,80.5,80.5,0,0,0,31.56,6.21A77.23,77.23,0,0,0,157,196a92.81,92.81,0,0,0,25.37-15.67V157.57H133.92v-39h92.53Z"/>
            <path class="fill" d="M729.9,122.69a126.54,126.54,0,0,1-8.28,46,117.59,117.59,0,0,1-23.06,37.54,107.36,107.36,0,0,1-80.12,34.74H519.71V4.43h98.74a105.82,105.82,0,0,1,44.79,9.46,110.72,110.72,0,0,1,35.33,25.42,115.56,115.56,0,0,1,23.06,37.54A126.94,126.94,0,0,1,729.9,122.69Zm-46.41-1.18a87.21,87.21,0,0,0-5-31.34A76.84,76.84,0,0,0,663.09,64.3,71.06,71.06,0,0,0,638.4,46.86q-14.63-6.35-33-6.36H565.53V201.91h39.91q18,0,32.37-6.06A70.16,70.16,0,0,0,662.2,179a75.83,75.83,0,0,0,15.52-25.42A95.7,95.7,0,0,0,683.49,121.5Z"/>
            <path class="fill" d="M1000.1,240.94H955.17V83.07L882.74,208.24,810.31,81.89v159H765.37V4.43h51.73L882.74,121.8,950.14,4.43h50Z"/>
            <path class="fill" d="M363,79.71l36,62,35.7,61.44H291.28L327,141.68l36-62m0-75.27L294.28,122.69,225.57,240.94H500.4L431.69,122.69,363,4.43Z"/>
            <polygon class="fill" points="882.89 4.43 933.02 4.43 907.95 47.85 882.89 91.27 857.82 47.85 834.16 4.43 882.89 4.43"/>
            <path d="M47.45,296.81H40V270.65L27.65,291.47l-11.86-21v26.36H8.35v-39.2h8.58L27.8,277.07l11.37-19.45h8.28Z"/>
            <path d="M194.15,296.81h-8.33L182.2,289h-19l-3.68,7.84h-8.33l18.52-39.2h5.93Zm-14.94-14.16-6.52-14.11-6.61,14.11Z"/>
            <path d="M330.77,289.61a21.27,21.27,0,0,1-3.63,3.55,21.69,21.69,0,0,1-4.09,2.47,20.4,20.4,0,0,1-4.36,1.45,21.7,21.7,0,0,1-4.43.46,21.35,21.35,0,0,1-8.18-1.57,20.89,20.89,0,0,1-6.66-4.31,20.54,20.54,0,0,1-4.51-6.47,20.06,20.06,0,0,1,0-15.95,20.11,20.11,0,0,1,4.51-6.44,21.57,21.57,0,0,1,6.69-4.34,21.06,21.06,0,0,1,8.18-1.59,20.36,20.36,0,0,1,9.19,2.06,21.74,21.74,0,0,1,7,5.49l-5.14,5.24a13.3,13.3,0,0,0-4.94-4.29,14.11,14.11,0,0,0-6.12-1.3,13.35,13.35,0,0,0-5.23,1,13.65,13.65,0,0,0-4.28,2.82,13.25,13.25,0,0,0-2.89,4.17,12.88,12.88,0,0,0,0,10.19,13.48,13.48,0,0,0,7.16,7,13.35,13.35,0,0,0,5.23,1,12.8,12.8,0,0,0,5-1,15.39,15.39,0,0,0,4.21-2.6V283h-8v-6.47h15.34Z"/>
            <path d="M475.27,296.81h-8.33L463.31,289h-19l-3.67,7.84h-8.33l18.52-39.2h5.93Zm-14.95-14.16-6.52-14.11-6.62,14.11Z" class="fill"/>
            <path d="M609.09,257.61l-19,31.7h18.82v7.5H577l19.4-32.44-18.67,0v-6.81Z" class="fill"/>
            <path d="M721.88,296.81h-7.59V257.66h7.59Z" class="fill"/>
            <path d="M861.63,296.81h-7.45l-17.69-27.49v27.49H829v-39.2h8.53l16.61,25.58V257.61h7.45Z" class="fill"/>
            <path d="M994.67,296.81H968.79V257.66h25.87v6.27H976.24v9.36h18.18v6.13H976.24V290.2h18.42Z" class="fill"/>
        </g>
    </g>
</svg>
