<?xml version="1.0" encoding="utf-8"?>
<!-- Generator: Adobe Illustrator 21.0.0, SVG Export Plug-In . SVG Version: 6.00 Build 0)  -->
<svg version="1.1" id="Layer_1" xmlns="http://www.w3.org/2000/svg" xmlns:xlink="http://www.w3.org/1999/xlink" x="0px" y="0px"
	 viewBox="0 0 1000.1 297.5" style="enable-background:new 0 0 1000.1 297.5;" xml:space="preserve">
<style type="text/css">
	.st0{fill:#555555;}
</style>
<g id="Layer_2">
	<g id="Capa_1">
		<path class="st0" d="M226.4,197.5c-6.4,8-13.8,15.2-21.9,21.4c-7.7,5.9-15.9,10.9-24.7,14.9c-8.4,3.9-17.2,6.8-26.3,8.7
			c-8.8,1.9-17.8,2.8-26.8,2.8c-16.9,0.1-33.7-3.1-49.4-9.5c-14.9-6-28.6-14.8-40.2-26c-11.5-11.1-20.7-24.4-27.2-39
			c-6.8-15.3-10.2-31.8-10-48.5C-0.1,106,3.3,89.7,9.9,74.7C16.3,60,25.6,46.8,37.1,35.8c11.7-11.2,25.4-20,40.3-26.2
			c15.7-6.5,32.4-9.7,49.4-9.6c20.3,0,38.8,4.1,55.4,12.4c16.3,8,30.7,19.3,42.4,33.1l-31,31.6c-8.9-12-18.8-20.6-29.8-25.9
			c-11-5.2-23.3-7.9-36.9-7.8c-10.8-0.1-21.6,2-31.6,6.2c-9.6,4-18.4,9.8-25.8,17c-7.4,7.2-13.3,15.7-17.4,25.1
			c-8.5,19.6-8.5,41.9,0,61.5c8.4,19.2,23.9,34.4,43.2,42.4c10,4.2,20.7,6.3,31.6,6.2c10.3,0.1,20.5-2,30.1-5.9
			c9.2-3.8,17.8-9.1,25.4-15.7v-22.8h-48.4v-39h92.5V197.5z"/>
		<path class="st0" d="M729.9,122.7c0.1,15.7-2.7,31.3-8.3,46c-5.3,13.9-13.1,26.6-23.1,37.5c-20.6,22.4-49.7,35-80.1,34.7h-98.7
			V4.4h98.7c15.4-0.2,30.7,3.1,44.8,9.5c13.3,6.1,25.4,14.7,35.3,25.4c10,10.9,17.9,23.7,23.1,37.5C727.2,91.5,730,107,729.9,122.7z
			 M683.5,121.5c0.3-10.7-1.4-21.3-5-31.3c-3.4-9.6-8.6-18.3-15.4-25.9c-6.9-7.5-15.3-13.5-24.7-17.4c-9.8-4.2-20.8-6.4-33-6.4
			h-39.9v161.4h39.9c12,0,22.8-2,32.4-6.1c9.2-3.8,17.6-9.6,24.4-16.9c6.8-7.4,12.1-16,15.5-25.4
			C681.5,143.3,683.4,132.4,683.5,121.5L683.5,121.5z"/>
		<path class="st0" d="M1000.1,240.9h-44.9V83.1l-72.4,125.2L810.3,81.9v159h-44.9V4.4h51.7l65.6,117.4L950.1,4.4h50L1000.1,240.9z"
			/>
		<path class="st0" d="M363,79.7l36,62l35.7,61.4H291.3l35.7-61.5L363,79.7 M363,4.4l-68.7,118.3l-68.7,118.2h274.8l-68.7-118.2
			L363,4.4L363,4.4z"/>
		<polygon class="st0" points="882.9,4.4 933,4.4 908,47.8 882.9,91.3 857.8,47.8 834.2,4.4 		"/>
		<path class="st0" d="M47.5,296.8H40v-26.2l-12.4,20.8l-11.9-21v26.4H8.4v-39.2h8.6l10.9,19.4l11.4-19.5h8.3L47.5,296.8z"/>
		<path class="st0" d="M194.1,296.8h-8.3l-3.6-7.8h-19l-3.7,7.8h-8.3l18.5-39.2h5.9L194.1,296.8z M179.2,282.6l-6.5-14.1l-6.6,14.1
			H179.2z"/>
		<path class="st0" d="M330.8,289.6c-1.1,1.3-2.3,2.5-3.6,3.5c-1.3,1-2.6,1.8-4.1,2.5c-1.4,0.6-2.9,1.1-4.4,1.5
			c-1.5,0.3-2.9,0.5-4.4,0.5c-2.8,0-5.6-0.5-8.2-1.6c-2.5-1-4.7-2.5-6.7-4.3c-1.9-1.8-3.4-4-4.5-6.5c-2.2-5.1-2.2-10.9,0-16
			c1.1-2.4,2.6-4.6,4.5-6.4c1.9-1.8,4.2-3.3,6.7-4.3c2.6-1.1,5.4-1.6,8.2-1.6c3.2,0,6.3,0.7,9.2,2.1c2.7,1.3,5.1,3.2,7,5.5l-5.1,5.2
			c-1.3-1.8-3-3.3-4.9-4.3c-1.9-0.9-4-1.3-6.1-1.3c-1.8,0-3.6,0.3-5.2,1c-1.6,0.7-3,1.6-4.3,2.8c-1.2,1.2-2.2,2.6-2.9,4.2
			c-1.4,3.3-1.4,6.9,0,10.2c1.4,3.2,4,5.7,7.2,7c1.7,0.7,3.4,1,5.2,1c1.7,0,3.4-0.3,5-1c1.5-0.6,3-1.5,4.2-2.6V283h-8v-6.5h15.3
			L330.8,289.6z"/>
		<path class="st0" d="M475.3,296.8h-8.3l-3.6-7.8h-19l-3.7,7.8h-8.3l18.5-39.2h5.9L475.3,296.8z M460.3,282.6l-6.5-14.1l-6.6,14.1
			H460.3z"/>
		<path class="st0" d="M609.1,257.6l-19,31.7h18.8v7.5H577l19.4-32.4h-18.7v-6.8L609.1,257.6z"/>
		<path class="st0" d="M721.9,296.8h-7.6v-39.1h7.6V296.8z"/>
		<path class="st0" d="M861.6,296.8h-7.5l-17.7-27.5v27.5H829v-39.2h8.5l16.6,25.6v-25.6h7.5L861.6,296.8z"/>
		<path class="st0" d="M994.7,296.8h-25.9v-39.1h25.9v6.3h-18.4v9.4h18.2v6.1h-18.2v10.8h18.4L994.7,296.8z"/>
	</g>
</g>
</svg>
